<?xml version="1.0" encoding="UTF-8" standalone="no"?>
<!-- Created with Inkscape (http://www.inkscape.org/) -->

<svg
   width="50mm"
   height="50mm"
   viewBox="0 0 50 49.999998"
   version="1.1"
   id="svg5"
   inkscape:version="1.1.2 (b8e25be833, 2022-02-05)"
   sodipodi:docname="administracja_państwowa_20x20_small.svg"
   xmlns:inkscape="http://www.inkscape.org/namespaces/inkscape"
   xmlns:sodipodi="http://sodipodi.sourceforge.net/DTD/sodipodi-0.dtd"
   xmlns="http://www.w3.org/2000/svg"
   xmlns:svg="http://www.w3.org/2000/svg">
  <sodipodi:namedview
     id="namedview7"
     pagecolor="#ffffff"
     bordercolor="#666666"
     borderopacity="1.0"
     inkscape:pageshadow="2"
     inkscape:pageopacity="0.0"
     inkscape:pagecheckerboard="0"
     inkscape:document-units="mm"
     showgrid="false"
     fit-margin-top="0"
     fit-margin-left="0"
     fit-margin-right="0"
     fit-margin-bottom="0"
     inkscape:zoom="3.0574074"
     inkscape:cx="110.38764"
     inkscape:cy="112.67717"
     inkscape:window-width="1920"
     inkscape:window-height="1051"
     inkscape:window-x="-9"
     inkscape:window-y="-9"
     inkscape:window-maximized="1"
     inkscape:current-layer="layer1" />
  <defs
     id="defs2" />
  <g
     inkscape:label="Warstwa 1"
     inkscape:groupmode="layer"
     id="layer1"
     transform="translate(-57.858341,-113.39698)">
    <path
       id="path1120"
       style="fill:#6592e6;fill-opacity:1;stroke:#5599ff;stroke-width:0.0355062;stroke-miterlimit:4;stroke-dasharray:none;stroke-opacity:1"
       d="m 83.737369,138.49222 c -0.401526,4.4e-4 -0.512211,0.0113 -0.555977,0.0471 -0.06711,0.05 -0.07088,0.10626 -0.08758,1.31997 l -0.01757,1.26656 -0.245252,0.0206 c -0.267484,0.022 -0.403779,0.0812 -0.555772,0.2391 -0.18287,0.18974 -0.212733,0.28963 -0.23205,0.77574 l -0.01797,0.45319 -0.630644,0.18776 c -3.20364,0.95382 -6.773857,2.03083 -6.825053,2.05824 -0.03469,0.0188 -0.09381,0.0873 -0.131251,0.15 -0.05947,0.10132 -0.06806,0.1851 -0.06775,0.66151 2.63e-4,0.36265 0.01506,0.57601 0.04414,0.63648 0.05389,0.11195 0.249411,0.21801 0.401856,0.21805 l 0.113861,8e-5 v 0.32866 c 0,0.38111 0.05183,0.54398 0.202554,0.6364 l 0.104358,0.0643 0.0153,0.41321 c 0.0167,0.45457 0.05088,0.54257 0.266261,0.68535 l 0.109616,0.0722 0.0012,1.87694 c 0.0012,1.47593 -0.02404,2.63831 0.0019,3.09194 -0.0012,0.0319 -0.0019,0.0622 -0.0019,0.0996 -0.0012,0.31154 -0.0019,0.3146 -0.110949,0.38672 -0.212617,0.14132 -0.248687,0.23168 -0.265987,0.6674 l -0.0158,0.3965 -0.252228,0.0175 c -0.300184,0.02 -0.437982,0.0931 -0.54428,0.28976 -0.0698,0.1284 -0.07502,0.1821 -0.06466,0.64621 0.0059,0.26354 0.01593,0.42203 0.04822,0.52953 l -0.648994,1.2e-4 c -0.184094,0.0233 -0.383608,0.21644 -0.371975,0.75543 0.0142,0.65704 0.04797,0.75565 0.308069,0.89907 0.126298,0.0699 0.668324,0.0734 9.673682,0.0734 9.005348,0 9.547392,-0.004 9.673674,-0.0734 0.260121,-0.14342 0.293936,-0.24203 0.308139,-0.89907 0.01172,-0.53899 -0.212048,-0.76158 -0.367124,-0.76078 l -0.744564,2.2e-4 c 0.03115,-0.10706 0.04103,-0.26484 0.04683,-0.52452 0.01041,-0.46416 0.0057,-0.51784 -0.06471,-0.64623 -0.106304,-0.19633 -0.244099,-0.26977 -0.544275,-0.28977 l -0.252242,-0.0179 -0.01581,-0.39664 c -0.01731,-0.43555 -0.05334,-0.5261 -0.265988,-0.66729 l -0.109563,-0.0718 v -2.69156 -2.6911 l 0.109553,-0.0724 c 0.215359,-0.14279 0.249509,-0.23075 0.266255,-0.68532 0.01493,-0.4055 0.01713,-0.41453 0.111959,-0.47268 0.154854,-0.095 0.210206,-0.26328 0.210206,-0.63852 v -0.33122 h 0.106263 c 0.168963,0 0.339127,-0.0918 0.401831,-0.21824 0.04743,-0.0955 0.05538,-0.21331 0.04613,-0.69322 -0.01428,-0.74901 0.02812,-0.7002 -0.838384,-0.96422 -0.228099,-0.0695 -0.434248,-0.12806 -0.568993,-0.16305 -0.829527,-0.25612 -2.384293,-0.72189 -3.246957,-0.9803 -1.203803,-0.36086 -2.37009,-0.71062 -2.591691,-0.77735 l -0.402917,-0.12161 -0.01803,-0.45037 c -0.01935,-0.48308 -0.04943,-0.58332 -0.232043,-0.77274 -0.151989,-0.15777 -0.288296,-0.21654 -0.555782,-0.23899 l -0.245252,-0.0208 v -0.34561 -0.34545 l 0.805816,-0.0184 c 0.4432,-0.0101 0.830314,-0.031 0.860219,-0.0465 0.02994,-0.0164 0.08111,-0.0747 0.113874,-0.13295 0.05026,-0.0893 0.05942,-0.21098 0.05942,-0.79837 v -0.69392 l -0.10204,-0.11864 -0.102168,-0.11878 -0.992701,-0.0101 c -0.206761,-0.003 -0.372942,-0.004 -0.506789,-0.004 z m -0.153075,0.54123 h 0.665677 0.665672 v 0.43668 0.43633 h -0.642268 c -0.353279,0 -0.65283,-0.0109 -0.665679,-0.0241 -0.0128,-0.0132 -0.02344,-0.20981 -0.02344,-0.43651 z m -0.240324,2.65511 c 0.596009,0 0.615687,0.003 0.689692,0.0846 0.0652,0.0711 0.07616,0.12628 0.07616,0.37823 v 0.29411 l -0.166428,-0.0536 c -0.345945,-0.11106 -0.59384,-0.15037 -0.749563,-0.11881 -0.08391,0.018 -0.259023,0.0628 -0.389082,0.10264 l -0.236495,0.0708 v -0.30026 c 0,-0.26658 0.0097,-0.30888 0.08108,-0.37918 0.0769,-0.0743 0.112924,-0.079 0.694615,-0.079 z m 0.0019,1.09018 3.151777,0.94603 c 1.733473,0.52028 3.180578,0.94602 3.215751,0.94602 4.09e-4,0 0.0021,-4.1e-4 0.0035,-4.1e-4 4.11e-4,5.6e-4 4.11e-4,5.6e-4 0.0019,0.002 0.04483,0.0371 1.211304,0.38156 1.513322,0.47146 l 0.549139,0.16365 6.9e-5,0.28175 c 3.9e-5,0.15484 -0.0072,0.28183 -0.01537,0.28183 -0.0094,0 -1.872797,-0.5575 -4.142969,-1.23873 -2.270184,-0.68125 -4.16804,-1.24731 -4.21749,-1.25795 -0.05422,-0.0113 -0.353082,0.0605 -0.753265,0.18144 -0.364853,0.11046 -1.128454,0.33975 -1.696898,0.50974 -0.56846,0.16999 -2.155076,0.64591 -3.525811,1.05737 -1.370744,0.41141 -2.501958,0.74813 -2.513813,0.74813 -0.01188,0 -0.0214,-0.12699 -0.02116,-0.28183 l 3.36e-4,-0.28175 1.567431,-0.46793 c 0.862096,-0.25734 2.763404,-0.82608 4.225078,-1.26409 z m -4.08e-4,1.13472 1.144343,0.344 c 0.629358,0.18911 1.262513,0.37761 1.40703,0.41895 0.144515,0.0414 0.286415,0.0897 0.315316,0.10644 0.0296,0.018 -1.226197,0.0316 -2.869981,0.0324 -1.607403,4.5e-4 -2.914307,-0.008 -2.904194,-0.0182 0.01011,-0.0106 0.668462,-0.21364 1.462942,-0.45134 z m -4.827609,1.44847 h 4.831828 4.831855 l 0.965046,0.29034 c 0.530806,0.15978 0.973255,0.2988 0.983181,0.30919 0.01,0.0106 -3.045823,0.0187 -6.79055,0.0187 -3.744725,0 -6.800943,-0.008 -6.791581,-0.018 0.01,-0.0101 0.456521,-0.14878 0.993655,-0.30913 z m -3.061636,1.16382 h 7.883 7.883026 v 0.25452 0.25457 h -7.883476 -7.88302 v -0.25457 z m 0.31532,1.05457 h 0.64815 0.648173 v 0.30918 0.30918 h -0.648396 -0.64817 v -0.30918 z m 1.821858,0 h 0.543063 0.543043 v 0.36501 c 0,0.44043 0.04608,0.57548 0.242518,0.71043 l 0.142874,0.0981 -2.67e-4,2.67753 -2.84e-4,2.67728 -0.135005,0.08 c -0.198896,0.11791 -0.249836,0.26014 -0.249836,0.69831 l -5.5e-5,0.36727 h -0.543272 -0.543057 l -1.25e-4,-0.39084 c -1.48e-4,-0.44 -0.04907,-0.57676 -0.243609,-0.6812 l -0.106625,-0.058 2.85e-4,-2.69942 2.73e-4,-2.69936 0.10414,-0.0614 c 0.19593,-0.11565 0.245462,-0.2555 0.245599,-0.69297 z m 1.611643,0 h 0.648152 0.648161 v 0.30918 0.30918 h -0.648376 -0.648154 v -0.30918 z m 1.821852,0 h 0.575148 0.575137 l 0.01178,0.43411 c 0.0114,0.42317 0.0142,0.43704 0.114206,0.54524 0.05637,0.061 0.131284,0.1205 0.166425,0.13196 0.0611,0.0201 0.06391,0.14017 0.06391,2.72721 v 2.70611 l -0.106624,0.0577 c -0.194561,0.1045 -0.24348,0.24131 -0.243605,0.68129 l -1.49e-4,0.39079 h -0.575015 -0.57501 l -0.01188,-0.39749 c -0.01311,-0.43784 -0.04997,-0.53089 -0.2675,-0.67523 l -0.109559,-0.0723 -4.12e-4,-2.69121 -4.14e-4,-2.69131 0.113119,-0.0568 c 0.191012,-0.0954 0.270696,-0.31128 0.270696,-0.73326 z m 1.681706,0 h 0.630648 0.630638 v 0.30918 0.30918 H 83.33929 82.708658 v -0.30918 z m 1.792704,0 h 0.575148 0.575132 v 0.35599 c 0,0.42196 0.0798,0.63791 0.270775,0.73326 l 0.113057,0.0567 4.14e-4,2.69206 4.14e-4,2.69216 -0.122013,0.0691 c -0.193098,0.10796 -0.263377,0.30102 -0.263377,0.72365 v 0.35217 h -0.57803 -0.578094 l -1.38e-4,-0.39127 c -1.33e-4,-0.44 -0.04899,-0.57649 -0.243528,-0.68077 l -0.106678,-0.0579 v -1.7647 l 0.0019,-1.84648 c 0.01199,-0.43477 -0.0019,-1.06677 -0.0019,-1.34727 0,-0.40736 0.0071,-0.45594 0.06392,-0.47504 0.03516,-0.0112 0.110031,-0.0705 0.166409,-0.13199 0.09993,-0.10813 0.102803,-0.12203 0.11421,-0.545 z m 1.675838,0 h 0.64815 0.648164 v 0.30918 0.30918 h -0.648141 -0.648152 v -0.30918 z m 1.821776,0 h 0.543052 0.543051 l 1.38e-4,0.39113 c 1.42e-4,0.43744 0.04972,0.57727 0.24559,0.69293 l 0.104148,0.0615 2.71e-4,2.69958 2.83e-4,2.69951 -0.106609,0.0578 c -0.194563,0.10442 -0.243482,0.24101 -0.243613,0.68101 h -6.1e-5 l -1.34e-4,0.39105 h -0.543218 -0.543055 v -0.36534 c 0,-0.43093 -0.06097,-0.59726 -0.259892,-0.70848 l -0.125512,-0.0701 v -2.67813 -2.67823 l 0.134663,-0.0924 c 0.200865,-0.13799 0.25073,-0.27994 0.25073,-0.7135 z m 1.611715,0 h 0.64815 0.648168 v 0.30918 0.30918 h -0.64806 -0.64816 v -0.30918 z m -13.453685,1.16392 h 0.280298 0.280272 v 2.67322 2.67299 h -0.28032 -0.280292 v -0.30501 c 0,-0.0415 -0.0012,-0.0786 -0.0019,-0.11377 0.01425,-0.65427 0.0019,-1.81883 0.0019,-3.0594 z m 3.398469,0 h 0.280275 0.280296 v 2.67322 2.67299 h -0.280345 -0.280302 v -2.67299 z m 3.503559,0 h 0.280291 0.280282 v 0.43143 c 0,0.24328 -0.0092,0.8546 0.0019,1.28914 l -0.0019,1.87823 v 1.74741 h -0.280281 -0.280295 v -2.67299 z m 3.503571,0 h 0.280288 0.28027 v 2.67322 2.67299 h -0.280204 -0.280271 v -2.67299 z m 3.398449,0 h 0.280296 0.280286 v 2.67322 2.67299 H 90.2413 89.961013 v -2.67299 z m -12.893456,5.89007 v 0.31 0.30995 h -0.649612 -0.649529 l 0.01011,-0.30003 0.01019,-0.30001 0.639394,-0.01 z m 12.542776,0 0.639403,0.0112 0.639399,0.01 0.01018,0.30004 0.01018,0.30005 h -0.649537 -0.649595 v -0.31008 z m -10.405596,0.002 h 0.64816 0.648158 v 0.30925 0.30918 h -0.648249 -0.648167 v -0.30919 z m 3.503562,0 h 0.630644 0.630626 v 0.30925 0.30918 H 83.33896 82.708307 v -0.30919 z m 3.468531,0 h 0.648151 0.648171 v 0.30925 0.30918 h -0.648194 -0.648166 v -0.30919 z m -11.281417,1.16387 h 8.443574 8.4436 v 0.34543 0.34576 h -8.443825 -8.443592 v -0.34576 z m -0.913674,1.22102 h 1.474524 c 0.940958,0.0138 3.031048,0.0156 7.882742,0.0156 4.851715,0 6.941798,-0.002 7.882761,-0.0156 h 1.566635 v 0.40105 0.40129 h -9.403412 -9.403322 v -0.40129 z" />
  </g>
</svg>
