<?xml version="1.0" encoding="UTF-8" standalone="no"?>
<!-- Created with Inkscape (http://www.inkscape.org/) -->

<svg
   width="50mm"
   height="50mm"
   viewBox="0 0 49.999998 49.999999"
   version="1.1"
   id="svg5"
   inkscape:version="1.1.2 (b8e25be833, 2022-02-05)"
   sodipodi:docname="branża_motoryzacyjna_20x20.svg"
   xmlns:inkscape="http://www.inkscape.org/namespaces/inkscape"
   xmlns:sodipodi="http://sodipodi.sourceforge.net/DTD/sodipodi-0.dtd"
   xmlns="http://www.w3.org/2000/svg"
   xmlns:svg="http://www.w3.org/2000/svg">
  <sodipodi:namedview
     id="namedview7"
     pagecolor="#ffffff"
     bordercolor="#666666"
     borderopacity="1.0"
     inkscape:pageshadow="2"
     inkscape:pageopacity="0.0"
     inkscape:pagecheckerboard="0"
     inkscape:document-units="mm"
     showgrid="false"
     fit-margin-top="0"
     fit-margin-left="0"
     fit-margin-right="0"
     fit-margin-bottom="0"
     inkscape:zoom="4.323827"
     inkscape:cx="89.619682"
     inkscape:cy="89.619682"
     inkscape:window-width="1920"
     inkscape:window-height="1051"
     inkscape:window-x="-9"
     inkscape:window-y="-9"
     inkscape:window-maximized="1"
     inkscape:current-layer="layer1"
     width="50mm" />
  <defs
     id="defs2" />
  <g
     inkscape:label="Warstwa 1"
     inkscape:groupmode="layer"
     id="layer1"
     transform="translate(-81.331625,-149.65353)">
    <g
       id="g825"
       transform="matrix(0.90908991,0,0,0.90909548,22.569465,38.692874)">
      <path
         sodipodi:nodetypes="cccsssssscssssscccccssscccccssscccccccccssscssssccccccccccccccccccssscccsssccccssscsccssssssssscsssssscssssscssssscsssscsscssscccccccsssssssssssscsccssscccc"
         id="path1954"
         d="m 81.534935,171.48263 c -0.190462,-0.11367 -0.200009,-0.18143 -0.201509,-1.43014 l -0.0018,-1.16912 0.516209,-3.41955 c 0.283915,-1.88082 0.516212,-3.45829 0.516212,-3.50547 0,-0.0473 -0.06956,-0.17592 -0.154542,-0.28598 -0.388896,-0.5036 -0.578379,-1.08281 -0.575991,-1.76089 0.0018,-0.5171 0.07391,-0.8552 0.273161,-1.28126 0.36223,-0.77459 1.012174,-1.30399 1.840129,-1.49879 l 0.338984,-0.0797 2.544119,-2.73162 c 1.399263,-1.50239 2.657288,-2.84569 2.795613,-2.9851 0.184474,-0.18591 0.285961,-0.33318 0.380833,-0.55273 0.373185,-0.86367 1.201499,-1.29909 2.029693,-1.06683 0.130175,0.036 0.317053,0.11828 0.415347,0.18172 l 0.17871,0.11538 3.086385,0.0209 3.086449,0.0209 0.110026,0.11848 0.110098,0.11846 0.01198,1.02334 c 0.0104,0.87595 0.0046,1.04263 -0.0521,1.15706 -0.09581,0.19956 -0.264195,0.25523 -0.772355,0.25523 h -0.438027 v 1.30425 1.30438 l -0.397085,0.95556 -0.397165,0.95555 v 0.73548 c 0,0.80244 -0.02673,0.92874 -0.217236,1.02219 -0.177146,0.0868 -0.297404,0.0613 -0.441845,-0.0945 l -0.135023,-0.14535 v -0.76702 -0.76709 l -0.407026,-0.91558 -0.407029,-0.91551 -0.01124,-1.33633 -0.01132,-1.33621 h -1.193849 -1.193762 l -0.190507,0.18443 c -0.104807,0.10148 -0.271306,0.2314 -0.369961,0.28867 -0.144678,0.0837 -0.680449,0.73992 -2.76363,3.38363 l -2.584192,3.27938 v 0.22863 c 0,0.45179 -0.184269,0.99651 -0.496463,1.46768 -0.09822,0.14824 -0.178578,0.29826 -0.178578,0.33347 0,0.0349 0.276963,1.62419 0.615478,3.53118 l 0.615482,3.46724 v 1.17974 1.17978 l -0.135006,0.14537 -0.135012,0.14537 -2.753776,-0.003 c -2.209478,-0.002 -2.772528,-0.0123 -2.848668,-0.0581 z m 5.078293,-1.47967 v -0.68418 h -2.243524 -2.243517 v 0.68418 0.68415 h 2.243517 2.243524 z m -0.106876,-1.52874 c 0.01611,-0.0307 -1.032087,-5.99785 -1.058559,-6.02633 -0.0073,-0.01 -0.136215,0.0333 -0.287263,0.0906 -0.151034,0.057 -0.323755,0.11544 -0.383812,0.12915 l -0.109199,0.025 v 1.11527 1.11519 l -0.135013,0.14543 c -0.09728,0.10475 -0.170511,0.14536 -0.262072,0.14536 -0.09156,0 -0.164788,-0.0406 -0.262076,-0.14536 l -0.135002,-0.14543 -3.03e-4,-1.10531 -3.01e-4,-1.1054 -0.327291,-0.10059 c -0.17998,-0.0553 -0.354061,-0.10917 -0.386821,-0.11963 -0.04967,-0.0157 -0.131241,0.45859 -0.491403,2.85868 -0.23751,1.58269 -0.440872,2.94016 -0.451919,3.01665 l -0.02005,0.139 h 2.147102 c 1.180904,0 2.154723,-0.0142 2.164032,-0.0327 z m -2.497994,-1.4816 c -0.18319,-0.19727 -0.18319,-0.36714 0,-0.56447 0.09729,-0.10473 0.170512,-0.14536 0.262076,-0.14536 0.176564,0 0.397085,0.23746 0.397085,0.42764 0,0.19007 -0.220521,0.42759 -0.397085,0.42759 -0.09156,0 -0.164788,-0.0407 -0.262076,-0.1454 z m 0.655718,-5.18011 c 0.540791,-0.13719 0.961117,-0.50658 1.221027,-1.07287 0.151188,-0.32943 0.152353,-0.33592 0.152353,-0.84738 0,-0.49348 -0.0052,-0.52719 -0.127651,-0.79616 -0.353163,-0.77718 -0.990656,-1.18526 -1.787413,-1.14429 -0.464999,0.0241 -0.847263,0.20905 -1.177108,0.57004 -1.277973,1.39835 -0.05445,3.74086 1.718792,3.29066 z m -0.800095,-0.65876 c -0.307709,-0.10552 -0.658051,-0.47489 -0.761955,-0.80328 -0.206842,-0.65366 0.074,-1.36748 0.650187,-1.65249 0.263986,-0.13061 0.748242,-0.1267 1.002459,0.01 0.739034,0.39205 0.932155,1.4077 0.393056,2.0672 -0.229067,0.28025 -0.472478,0.39602 -0.857438,0.4079 -0.174716,0.009 -0.366558,-0.01 -0.426309,-0.0277 z m 0.6351,-0.85743 c 0.04578,0 0.168172,-0.30639 0.168288,-0.42119 1.5e-4,-0.1958 -0.216924,-0.434 -0.395577,-0.434 -0.26027,0 -0.435902,0.18228 -0.437267,0.45391 -0.0018,0.314 0.252761,0.52187 0.534915,0.43701 0.06538,-0.0198 0.123716,-0.0355 0.129641,-0.0355 z m 4.396598,-4.33715 2.053209,-2.60538 -0.186629,-0.0787 c -0.381284,-0.16132 -0.732747,-0.50247 -0.904965,-0.87858 -0.04579,-0.1 -0.09537,-0.18171 -0.110205,-0.18171 -0.01484,0 -1.075427,1.11897 -2.356851,2.48671 l -2.329865,2.48666 0.295615,0.15711 c 0.514945,0.27371 0.906235,0.66549 1.180837,1.18236 l 0.126383,0.23792 0.08963,-0.1004 c 0.04928,-0.0551 1.013572,-1.27289 2.142833,-2.70579 z m 7.700937,-0.36137 0.181905,-0.44378 v -1.21315 -1.21316 H 96.36163 95.944683 v 1.20461 1.20471 l 0.208504,0.48173 c 0.114585,0.26491 0.220338,0.46843 0.234953,0.45231 0.01449,-0.0161 0.108404,-0.22915 0.208476,-0.47327 z m -4.708403,-3.1993 c 0.12028,-0.0798 0.230938,-0.20453 0.31658,-0.35649 0.123399,-0.21908 0.130857,-0.25411 0.118963,-0.56155 -0.01099,-0.28391 -0.02905,-0.35275 -0.132891,-0.51214 -0.06613,-0.1013 -0.207591,-0.24239 -0.314391,-0.31347 -0.168784,-0.11239 -0.231425,-0.12929 -0.478393,-0.12929 -0.246962,0 -0.309623,0.0168 -0.478385,0.12929 -0.10681,0.0713 -0.24807,0.21187 -0.313907,0.3127 -0.101,0.15475 -0.121985,0.232 -0.13429,0.49435 -0.01258,0.26821 -4.53e-4,0.34079 0.08813,0.52908 0.249663,0.53063 0.860956,0.71809 1.328592,0.40752 z m 6.161023,-1.01775 v -0.49172 h -2.5059 c -2.371481,0 -2.504233,0.007 -2.475782,0.0752 0.01652,0.0413 0.03815,0.26237 0.04884,0.49174 l 0.0182,0.41694 h 2.457323 2.457343 z"
         style="fill:#6592e6;fill-opacity:1;stroke:#6592e6;stroke-width:0;stroke-miterlimit:4;stroke-dasharray:none;stroke-opacity:1" />
      <path
         id="path1969"
         d="m 90.321112,170.80405 v -0.8495 l -0.12085,-0.0671 c -0.140455,-0.0774 -0.234161,-0.18082 -0.318497,-0.35112 -0.05675,-0.11458 -0.06016,-0.23619 -0.06016,-2.1516 v -2.03011 l 0.07917,-0.14888 c 0.05292,-0.0996 0.242425,-0.29345 0.572013,-0.58522 0.271061,-0.24006 0.492838,-0.44076 0.492838,-0.44612 0,-0.009 -0.157488,-0.1364 -0.349974,-0.29108 l -0.349968,-0.28121 h -0.386875 c -0.340821,0 -0.396845,-0.01 -0.470596,-0.0711 -0.103799,-0.0879 -0.140241,-0.26923 -0.08106,-0.40333 0.07806,-0.17693 0.215693,-0.21976 0.706964,-0.21981 l 0.438073,-5e-5 0.407066,0.32967 c 0.223887,0.18134 0.41831,0.32913 0.43204,0.32833 0.01374,-5.5e-4 0.25582,-0.56678 0.537977,-1.25798 0.559672,-1.37091 0.626677,-1.48727 0.909838,-1.57858 0.100102,-0.0326 0.953913,-0.0422 3.575951,-0.0421 l 3.444461,3.5e-4 0.162434,0.0813 c 0.08952,0.0453 0.199833,0.12928 0.245523,0.18776 0.0459,0.0582 0.31339,0.66933 0.59485,1.3575 0.28148,0.6881 0.52304,1.2516 0.53675,1.25206 0.0135,5.2e-4 0.20817,-0.14742 0.43208,-0.32877 l 0.40707,-0.32969 0.43807,7e-5 c 0.49124,1.1e-4 0.62891,0.0425 0.70691,0.21978 0.0593,0.13412 0.0228,0.31541 -0.081,0.40336 -0.0735,0.0626 -0.12978,0.0711 -0.46584,0.0711 h -0.38221 l -0.33048,0.26362 c -0.18178,0.14496 -0.3417,0.27494 -0.35532,0.28867 -0.0134,0.0136 0.19702,0.22213 0.46818,0.46281 0.33018,0.29321 0.51932,0.48723 0.57263,0.58753 l 0.0798,0.14987 v 2.0301 c 0,1.91546 -0.006,2.03704 -0.0598,2.15161 -0.0844,0.17022 -0.17808,0.27357 -0.31849,0.35108 l -0.12084,0.0671 v 0.84953 0.84952 h -1.48245 -1.482397 v -0.8329 -0.83285 H 96.31575 93.286485 v 0.83285 0.8329 h -1.482464 -1.482396 z m 2.320276,-0.33037 v -0.48584 h -0.837882 -0.837877 v 0.48584 0.48585 h 0.837877 0.837882 z m 9.023262,0 v -0.48584 h -0.83781 -0.837886 v 0.48584 0.48585 h 0.837886 0.83781 z m 0.49955,-3.07083 v -1.87354 l -0.52928,-0.47754 c -0.2911,-0.26269 -0.5414,-0.47759 -0.55622,-0.47759 -0.0148,0 -0.31667,0.15615 -0.67082,0.34696 l -0.643904,0.34705 h -3.450761 -3.450819 l -0.636807,-0.34705 c -0.350246,-0.19081 -0.650311,-0.34696 -0.66683,-0.34696 -0.01648,0 -0.269116,0.21468 -0.561332,0.47711 l -0.531301,0.47717 -0.0085,1.83928 c -0.0051,1.01159 -0.0018,1.85883 0.0074,1.88276 0.01235,0.0347 1.20083,0.0418 5.85736,0.0348 l 5.841994,-0.01 z m -8.069076,0.87079 c -0.216002,-0.12889 -0.208881,-0.49595 0.01142,-0.60417 0.121257,-0.0594 4.295547,-0.0594 4.416757,0 0.09293,0.046 0.17638,0.19097 0.17638,0.30717 0,0.10623 -0.09411,0.26367 -0.184038,0.30777 -0.122053,0.0598 -4.319552,0.0498 -4.420769,-0.0111 z m -2.835914,-1.11048 c -0.215966,-0.12893 -0.208882,-0.49594 0.01167,-0.60421 0.132241,-0.0644 1.98886,-0.0576 2.107057,0.01 0.09373,0.0524 0.165805,0.1837 0.165805,0.30252 0,0.10327 -0.09534,0.26086 -0.184101,0.30441 -0.119167,0.0582 -2.000563,0.0491 -2.100428,-0.0111 z m 7.992084,0 c -0.215979,-0.12893 -0.208857,-0.49594 0.01142,-0.60421 0.132245,-0.0644 1.988856,-0.0576 2.107076,0.01 0.0938,0.0524 0.1658,0.1837 0.1658,0.30252 0,0.10327 -0.0953,0.26086 -0.18412,0.30441 -0.1192,0.0582 -2.000547,0.0491 -2.100383,-0.0111 z m 0.968276,-2.90999 0.53676,-0.30262 -0.52713,-1.27588 -0.527135,-1.27585 H 96.313702 92.92527 l -0.525482,1.27688 -0.525442,1.27682 0.568805,0.30927 0.568855,0.30919 3.335402,-0.01 3.335435,-0.01 z"
         style="fill:#6592e6;fill-opacity:1;stroke:#6592e6;stroke-width:0;stroke-miterlimit:4;stroke-dasharray:none;stroke-opacity:1" />
    </g>
  </g>
</svg>
