<?xml version="1.0" encoding="UTF-8" standalone="no"?>
<!-- Created with Inkscape (http://www.inkscape.org/) -->

<svg
   width="50mm"
   height="50mm"
   viewBox="0 0 49.999999 50"
   version="1.1"
   id="svg5"
   inkscape:version="1.1.2 (b8e25be833, 2022-02-05)"
   sodipodi:docname="dystrybucja_paliw_20x20.svg"
   xmlns:inkscape="http://www.inkscape.org/namespaces/inkscape"
   xmlns:sodipodi="http://sodipodi.sourceforge.net/DTD/sodipodi-0.dtd"
   xmlns="http://www.w3.org/2000/svg"
   xmlns:svg="http://www.w3.org/2000/svg">
  <sodipodi:namedview
     id="namedview7"
     pagecolor="#ffffff"
     bordercolor="#666666"
     borderopacity="1.0"
     inkscape:pageshadow="2"
     inkscape:pageopacity="0.0"
     inkscape:pagecheckerboard="0"
     inkscape:document-units="mm"
     showgrid="false"
     fit-margin-top="0"
     fit-margin-left="0"
     fit-margin-right="0"
     fit-margin-bottom="0"
     inkscape:zoom="3.0574074"
     inkscape:cx="72.447002"
     inkscape:cy="104.5003"
     inkscape:window-width="1920"
     inkscape:window-height="1051"
     inkscape:window-x="-9"
     inkscape:window-y="-9"
     inkscape:window-maximized="1"
     inkscape:current-layer="layer1" />
  <defs
     id="defs2" />
  <g
     inkscape:label="Warstwa 1"
     inkscape:groupmode="layer"
     id="layer1"
     transform="translate(-39.348688,-107.20407)">
    <path
       id="path1199"
       d="m 56.092607,151.93071 -0.131974,-0.11318 v -0.97213 -0.97213 l 0.107055,-0.10278 c 0.08992,-0.0863 0.152816,-0.10592 0.393163,-0.12243 l 0.286108,-0.0196 0.01213,-7.84084 c 0.01142,-7.43281 0.0159,-7.85293 0.08517,-8.07359 0.226788,-0.72236 0.781023,-1.25718 1.510296,-1.45737 0.262653,-0.0721 0.447867,-0.075 4.862737,-0.075 4.104266,0 4.612899,0.007 4.80918,0.0626 0.717185,0.20438 1.277699,0.72654 1.518346,1.41444 0.06888,0.19683 0.075,0.47874 0.09461,4.33953 l 0.02096,4.12897 0.200148,0.049 c 0.850268,0.20816 1.600699,0.95835 1.779971,1.77933 0.04466,0.20457 0.05942,0.5687 0.05999,1.47571 5.55e-4,1.3086 0.02362,1.49174 0.228174,1.82676 0.161352,0.26433 0.451799,0.51913 0.742309,0.65129 0.239064,0.10876 0.299297,0.11956 0.666924,0.11956 0.368381,0 0.427564,-0.0107 0.669292,-0.12063 0.300314,-0.1366 0.639753,-0.43851 0.771833,-0.6865 0.183954,-0.3454 0.194584,-0.46188 0.195083,-2.13902 l 4.05e-4,-1.58837 -1.069645,-1.03326 c -1.001886,-0.96784 -1.079324,-1.05274 -1.222463,-1.34055 l -0.152823,-0.30724 -0.01113,-1.84272 -0.0112,-1.84269 -1.191445,-1.14501 -1.191444,-1.14502 0.303922,-0.28978 0.303916,-0.28981 2.344851,2.24947 c 1.28966,1.23721 2.398699,2.32944 2.464518,2.42717 0.0658,0.0978 0.156123,0.27943 0.200681,0.40372 0.07881,0.2199 0.081,0.32439 0.081,3.87777 0,4.02512 0.0097,3.85828 -0.254677,4.35886 -0.318725,0.60337 -0.905645,1.05921 -1.584082,1.23027 -0.31939,0.0805 -0.97679,0.0801 -1.293187,-5.3e-4 -0.69214,-0.17717 -1.26486,-0.62722 -1.59144,-1.25053 -0.22266,-0.42499 -0.246032,-0.604 -0.246948,-1.8916 -4.07e-4,-0.6401 -0.01816,-1.26542 -0.03938,-1.38961 -0.08371,-0.49061 -0.419625,-0.94278 -0.858367,-1.15537 -0.127533,-0.0618 -0.250586,-0.11235 -0.273439,-0.11235 -0.02817,0 -0.04155,1.06876 -0.04155,3.31244 v 3.31246 l 0.287608,0.0156 c 0.264741,0.0144 0.297049,0.0257 0.406086,0.1429 l 0.118469,0.12726 -0.01206,0.97055 -0.01206,0.97052 -0.11339,0.0936 -0.113382,0.0936 h -6.988412 -6.988429 z m 13.50716,-1.06998 v -0.36854 h -6.405343 -6.40534 v 0.36854 0.36853 h 6.40534 6.405343 z m -0.848663,-9.01803 v -7.79606 l -0.08571,-0.21991 c -0.146545,-0.37596 -0.465682,-0.65148 -0.892699,-0.77065 -0.19605,-0.0547 -0.707494,-0.0603 -4.663189,-0.0509 l -4.443001,0.0105 -0.268455,0.12688 c -0.307512,0.14531 -0.484976,0.3208 -0.634989,0.62781 l -0.10512,0.21516 -0.01053,7.82656 -0.01053,7.8266 h 5.557084 5.557059 z M 59.223258,140.07 c -0.244418,-0.0836 -0.584846,-0.39569 -0.701228,-0.64289 l -0.09625,-0.20444 v -2.26942 -2.26943 l 0.105876,-0.21672 c 0.134575,-0.27547 0.35129,-0.48349 0.638261,-0.6127 l 0.225763,-0.10163 h 3.778543 c 3.537513,0 3.79187,0.004 3.987492,0.07 0.279451,0.0936 0.548958,0.32889 0.687954,0.60059 l 0.113404,0.2217 0.01134,2.22618 c 0.01277,2.49523 0.01402,2.48199 -0.267196,2.82334 -0.08674,0.10527 -0.250717,0.23866 -0.3737,0.30397 l -0.219128,0.11638 -3.85937,0.007 c -3.363424,0.006 -3.881519,-4.3e-4 -4.031784,-0.0519 z m 7.773428,-0.87859 0.09752,-0.10883 v -2.14744 -2.14744 l -0.124329,-0.10042 -0.12435,-0.10043 h -3.657309 -3.657312 l -0.118133,0.11339 -0.11812,0.11338 0.0014,2.10755 c 0.0014,2.25666 -4.07e-4,2.23465 0.205082,2.34469 0.07883,0.0422 0.767377,0.0501 3.747281,0.0431 l 3.650715,-0.009 0.09753,-0.10883 z m 7.876714,0.33038 c -0.07989,-0.16752 -0.256835,-0.36389 -0.808169,-0.89689 l -0.705868,-0.68241 -4.56e-4,1.24405 c -4.4e-4,1.03249 0.01046,1.27987 0.06456,1.45473 0.05949,0.19244 0.128807,0.27242 0.798141,0.92102 l 0.732996,0.71029 0.01067,-1.26814 0.01067,-1.26814 -0.102295,-0.21451 z"
       style="fill:#6592e6;fill-opacity:1;stroke:#6592e6;stroke-width:0.137324;stroke-miterlimit:4;stroke-dasharray:none;stroke-opacity:1" />
  </g>
</svg>
