<?xml version="1.0" encoding="UTF-8" standalone="no"?>
<!-- Created with Inkscape (http://www.inkscape.org/) -->

<svg
   width="50mm"
   height="50mm"
   viewBox="0 0 49.999999 50"
   version="1.1"
   id="svg5"
   inkscape:version="1.1.2 (b8e25be833, 2022-02-05)"
   sodipodi:docname="firmy ubezpieczeniowe_20x20.svg"
   xmlns:inkscape="http://www.inkscape.org/namespaces/inkscape"
   xmlns:sodipodi="http://sodipodi.sourceforge.net/DTD/sodipodi-0.dtd"
   xmlns="http://www.w3.org/2000/svg"
   xmlns:svg="http://www.w3.org/2000/svg">
  <sodipodi:namedview
     id="namedview7"
     pagecolor="#ffffff"
     bordercolor="#666666"
     borderopacity="1.0"
     inkscape:pageshadow="2"
     inkscape:pageopacity="0.0"
     inkscape:pagecheckerboard="0"
     inkscape:document-units="mm"
     showgrid="false"
     fit-margin-top="0"
     fit-margin-left="0"
     fit-margin-right="0"
     fit-margin-bottom="0"
     inkscape:zoom="3.6203867"
     inkscape:cx="72.78228"
     inkscape:cy="137.96869"
     inkscape:window-width="1920"
     inkscape:window-height="1051"
     inkscape:window-x="-9"
     inkscape:window-y="-9"
     inkscape:window-maximized="1"
     inkscape:current-layer="layer1" />
  <defs
     id="defs2" />
  <g
     inkscape:label="Warstwa 1"
     inkscape:groupmode="layer"
     id="layer1"
     transform="translate(-57.767106,-188.28739)">
    <g
       id="g1098"
       transform="matrix(0.46236831,0,0,0.46749715,44.82804,123.32991)">
      <path
         sodipodi:nodetypes="sssssssssssssssccssssssssssssccsscssssssssssscssssccsscsscscssssscsscscsccs"
         id="path1160"
         d="m 82.626236,204.71304 -0.44402,0.0241 c -1.31238,0.0713 -3.16999,0.70391 -4.34906,1.48103 -0.7971,0.52538 -1.53586,1.22477 -1.934716,1.8316 -0.326727,0.49709 -0.647604,0.73324 -0.996316,0.73324 -0.331954,0 -0.539728,-0.16188 -1.014916,-0.79076 -0.760987,-1.00706 -2.297408,-1.87356 -3.797751,-2.14184 -0.798489,-0.14277 -2.075079,-0.15814 -2.87337,-0.0346 -1.321533,0.2045 -2.813373,0.95931 -3.648572,1.84599 -0.206438,0.21917 -0.442948,0.44021 -0.525576,0.49118 -0.229454,0.14154 -0.63741,0.11508 -0.926297,-0.0601 -0.315918,-0.19158 -0.33696,-0.51337 -0.109821,-1.67937 0.363719,-1.86696 0.896172,-3.20311 1.920549,-4.8195 2.075948,-3.27565 5.462917,-5.88571 9.720654,-7.4909 2.669209,-1.00631 4.994652,-1.48684 8.313182,-1.71783 l 0.71536,-0.0498 c 1.48008,0.003 0,0 1.48008,0.003 l 0.66605,0.0466 c 3.24877,0.22743 5.61417,0.7199 8.28664,1.72529 4.22385,1.58903 7.623754,4.21264 9.699454,7.48477 1.00889,1.59044 1.5595,2.97286 1.91894,4.81801 0.22717,1.166 0.20614,1.48778 -0.10986,1.67937 -0.28899,0.17526 -0.69545,0.20157 -0.92935,0.0601 -0.0843,-0.0509 -0.29408,-0.25161 -0.46616,-0.44587 -0.76348,-0.86188 -2.37768,-1.6859 -3.704934,-1.8913 -2.70793,-0.41906 -5.43901,0.5028 -6.75074,2.27866 -0.38202,0.51722 -0.61477,0.68856 -0.93532,0.68856 -0.3487,0 -0.66957,-0.23616 -0.9963,-0.73324 -1.01026,-1.53708 -3.30889,-2.86186 -5.59116,-3.22235 -0.50757,-0.0802 -0.62053,-0.0927 -1.00508,-0.10657 -0.93294,-0.0435 -0.92593,-0.0405 -1.61159,-0.008 z m -8.336488,0.60465 c 0.559262,-4.78339 2.224078,-8.78621 4.582968,-11.01903 0.24774,-0.2345 0.39442,-0.42627 0.32595,-0.42618 -0.23654,2.5e-4 -2.00214,0.3867 -2.83797,0.62098 -5.608816,1.57214 -10.195571,5.16146 -11.992185,9.38436 -0.393246,0.92433 -0.673431,1.78403 -0.599903,1.84072 0.02624,0.0202 0.195313,-0.0501 0.375734,-0.15613 0.450944,-0.26519 1.683968,-0.7048 2.398416,-0.85511 0.325633,-0.0685 1.085078,-0.14217 1.687658,-0.1637 2.076001,-0.0742 3.782097,0.36243 5.383055,1.3775 0.289898,0.18382 0.536753,0.32778 0.548543,0.31991 0.01297,-0.008 0.06926,-0.42336 0.12776,-0.92332 z m 19.843378,0.0577 c 1.42429,-0.65884 2.65484,-0.89313 4.36938,-0.83188 1.565904,0.0559 2.796644,0.35633 3.977684,0.97085 0.2459,0.12791 0.46617,0.21794 0.48948,0.19998 0.0687,-0.053 -0.2232,-0.9386 -0.60524,-1.83661 -1.35057,-3.17448 -4.327264,-6.05638 -8.242654,-7.98015 -0.89852,-0.44148 -2.61218,-1.08273 -3.74957,-1.40307 -0.83746,-0.23588 -2.59967,-0.62176 -2.84107,-0.62212 -0.0702,-7e-5 0.11038,0.23089 0.40119,0.51332 1.54593,1.50118 2.71907,3.58487 3.56568,6.33322 0.46234,1.50082 0.73573,2.88127 0.99855,5.0418 l 0.0628,0.51535 0.47193,-0.30462 c 0.25957,-0.16756 0.75544,-0.43578 1.10196,-0.59607 z m -16.46358,-0.57174 c 4.00947,-2.04834 9.16196,-1.72264 12.6601,0.80026 l 0.6458,0.46577 -0.0546,-0.37412 c -0.0301,-0.20576 -0.12296,-0.8705 -0.20668,-1.47719 -0.36641,-2.65941 -1.33052,-5.39376 -2.58845,-7.34121 -0.94341,-1.46055 -2.13324,-2.56517 -3.27908,-3.04429 -0.49399,-0.20657 -0.6268,-0.22692 -1.48009,-0.22692 -0.85327,0 -0.98608,0.0204 -1.48007,0.22692 -2.75177,1.15062 -5.14881,5.37803 -5.867249,10.34746 -0.0847,0.58578 -0.180031,1.25211 -0.211977,1.48073 l -0.05785,0.4157 0.676775,-0.49176 c 0.372231,-0.27048 0.931841,-0.62208 1.243591,-0.78135 z"
         style="fill:#6592e6;fill-opacity:1;stroke:#6592e6;stroke-width:0.2;stroke-miterlimit:4;stroke-dasharray:none;stroke-opacity:1" />
      <path
         id="path1969-2"
         d="m 88.014436,224.46875 v -0.87561 l -0.13413,-0.0688 c -0.15589,-0.0799 -0.2599,-0.18642 -0.3535,-0.36189 -0.063,-0.11811 -0.0668,-0.24344 -0.0668,-2.21765 v -2.09246 l 0.0879,-0.15346 c 0.0588,-0.10262 0.26908,-0.30243 0.63489,-0.60319 0.30086,-0.24736 0.54702,-0.45427 0.54702,-0.45981 0,-0.006 -0.1748,-0.14053 -0.38844,-0.29997 l -0.38845,-0.28988 h -0.42941 c -0.37828,0 -0.44047,-0.009 -0.52232,-0.0731 -0.11522,-0.0906 -0.15566,-0.27744 -0.09,-0.41569 0.0866,-0.18236 0.23941,-0.22648 0.78468,-0.22654 l 0.48622,-5e-5 0.45182,0.3398 c 0.2485,0.18689 0.46429,0.33917 0.47953,0.33841 0.0153,-8.4e-4 0.28394,-0.58424 0.59711,-1.29661 0.62119,-1.41302 0.6956,-1.53292 1.00982,-1.62706 0.11112,-0.0333 1.05878,-0.0437 3.96906,-0.0434 l 3.82308,2.8e-4 0.18031,0.084 c 0.0992,0.0462 0.22179,0.13327 0.27249,0.19353 0.0507,0.0603 0.34783,0.68987 0.66026,1.39915 0.31244,0.70927 0.580544,1.29 0.595784,1.29051 0.0153,2.8e-4 0.23102,-0.15197 0.47952,-0.33886 l 0.45181,-0.3398 0.48622,7e-5 c 0.54528,7e-5 0.69807,0.0442 0.78468,0.22654 0.0657,0.13824 0.0252,0.32506 -0.09,0.41569 -0.0817,0.0643 -0.14407,0.0731 -0.51709,0.0731 h -0.42417 l -0.36684,0.27172 c -0.20177,0.14944 -0.37924,0.28336 -0.39439,0.29758 -0.0151,0.0142 0.21871,0.22889 0.51966,0.47704 0.36647,0.30216 0.57638,0.50217 0.63559,0.60557 l 0.0884,0.1544 v 2.09246 c 0,1.97421 -0.004,2.09953 -0.0668,2.21765 -0.0936,0.17547 -0.1976,0.28195 -0.3535,0.36189 l -0.13413,0.0688 v 0.87561 0.8756 h -1.645344 -1.64536 v -0.85844 -0.85845 h -3.36223 -3.36224 v 0.85845 0.85844 h -1.64535 -1.64536 z m 2.57534,-0.34053 v -0.50076 h -0.92998 -0.92999 v 0.50076 0.50076 h 0.92999 0.92998 z m 10.015204,0 v -0.50076 h -0.929994 -0.92998 v 0.50076 0.50076 h 0.92998 0.929994 z m 0.55439,-3.16509 v -1.93107 l -0.58747,-0.49224 c -0.32311,-0.27074 -0.600914,-0.49225 -0.617344,-0.49225 -0.0164,0 -0.35148,0.16096 -0.74456,0.35768 l -0.71469,0.35769 h -3.83012 -3.83011 l -0.7068,-0.35769 c -0.38874,-0.19672 -0.7218,-0.35768 -0.74014,-0.35768 -0.0183,0 -0.2987,0.22131 -0.62304,0.49181 l -0.5897,0.49183 -0.009,1.89573 c -0.005,1.04265 -0.001,1.91589 0.008,1.94053 0.0136,0.0357 1.33282,0.043 6.50129,0.0358 l 6.484124,-0.009 z m -8.956074,0.89752 c -0.23972,-0.13286 -0.23185,-0.51118 0.013,-0.62272 0.13457,-0.0613 4.76772,-0.0613 4.90229,0 0.10306,0.047 0.19573,0.19685 0.19573,0.3166 0,0.10947 -0.10453,0.27175 -0.20433,0.31723 -0.13543,0.0617 -4.79429,0.0512 -4.90664,-0.0111 z m -3.14763,-1.14459 c -0.23972,-0.13286 -0.23185,-0.51118 0.013,-0.62272 0.14677,-0.0669 2.20743,-0.0596 2.33865,0.008 0.10403,0.0538 0.18403,0.18934 0.18403,0.31181 0,0.10641 -0.1058,0.26888 -0.20432,0.31377 -0.13229,0.0603 -2.22047,0.0503 -2.33131,-0.0111 z m 8.8706,0 c -0.23972,-0.13286 -0.23185,-0.51118 0.013,-0.62272 0.14677,-0.0669 2.207434,-0.0596 2.338654,0.008 0.10403,0.0538 0.18403,0.18934 0.18403,0.31181 0,0.10641 -0.1058,0.26888 -0.20433,0.31377 -0.13228,0.0603 -2.220464,0.0503 -2.331304,-0.0111 z m 1.07472,-2.99934 0.59579,-0.31188 -0.58507,-1.31505 -0.58507,-1.31504 h -3.76088 -3.76088 l -0.58323,1.31606 -0.58324,1.31607 0.63135,0.31871 0.63136,0.31872 3.70204,-0.008 3.70204,-0.008 z"
         style="fill:#6592e6;fill-opacity:1;stroke:#6592e6;stroke-width:0.2;stroke-miterlimit:4;stroke-dasharray:none;stroke-opacity:1" />
      <path
         style="fill:#6592e6;fill-opacity:1;stroke:#6592e6;stroke-width:0.2;stroke-miterlimit:4;stroke-dasharray:none;stroke-opacity:1"
         d="m 77.477216,234.56952 c -0.17258,-0.0432 -1.714145,-0.58739 -2.532762,-1.39367 -1.062521,-1.04654 -1.632904,-2.34843 -1.632904,-3.72712 0,-0.35903 0.0531,-0.51637 0.230277,-0.68286 0.261913,-0.24606 0.7232,-0.27908 0.997275,-0.0713 0.187826,0.14229 0.357722,0.69134 0.361946,1.16959 0.0039,0.4474 0.390404,1.34132 0.808691,1.87048 0.819009,1.03614 2.028557,1.55704 3.397557,1.46323 1.82546,-0.12516 3.27648,-1.49339 3.56185,-3.35873 0.0613,-0.40053 0.0881,-19.44116 0.0713,-25.64041 l 1.51466,-0.0131 v 26.06999 l -0.25273,0.75291 c -0.31269,0.93147 -0.78233,1.65112 -1.52504,2.33694 -0.72323,0.66782 -1.38682,1.02644 -2.35957,1.27524 -0.95369,0.2439 -1.35568,0.26973 -2.11296,0.0806 z"
         id="path1160-6"
         sodipodi:nodetypes="ssssssssscccsssss" />
      <path
         style="fill:#6592e6;fill-opacity:1;stroke:#6592e6;stroke-width:0.2;stroke-miterlimit:4;stroke-dasharray:none;stroke-opacity:1"
         d="m 65.44045,225.3519 c -0.05589,-0.0341 -0.127438,-0.10136 -0.158992,-0.14951 -0.05415,-0.0826 -0.05827,-0.28005 -0.07328,-3.50736 l -0.01588,-3.41979 -0.71548,-0.0159 c -0.782859,-0.0174 -0.814497,-0.0244 -1.015419,-0.22534 -0.171629,-0.17163 -0.238642,-0.33538 -0.239615,-0.58553 -4.21e-4,-0.16975 0.01664,-0.25817 0.07286,-0.37243 0.06101,-0.124 0.716044,-0.73531 3.799204,-3.54558 2.713765,-2.47357 3.772229,-3.4195 3.897603,-3.48319 0.124962,-0.0635 0.219354,-0.0874 0.344577,-0.0874 0.315857,0 0.417803,0.0695 1.355964,0.92499 l 0.863427,0.7873 0.01799,-0.22061 c 0.02043,-0.25086 0.08396,-0.36322 0.254581,-0.45022 0.09997,-0.051 0.257425,-0.0556 1.893025,-0.0557 l 1.783991,-6e-5 0.10804,0.0722 c 0.22859,0.15271 0.21917,0.0489 0.21993,2.42404 l 8.4e-4,2.13052 0.74421,0.67655 c 0.8512,0.77382 0.89259,0.82954 0.89115,1.19959 -8.4e-4,0.25184 -0.068,0.41391 -0.24383,0.58976 -0.20801,0.208 -0.31429,0.23262 -1.06685,0.24706 l -0.67573,0.013 v 3.37558 c 0,3.22432 -0.002,3.38055 -0.0589,3.48639 -0.0324,0.0609 -0.10605,0.14299 -0.1637,0.18234 l -0.10481,0.0716 h -2.152925 -2.152922 l -0.104818,-0.0715 c -0.05765,-0.0394 -0.131314,-0.12141 -0.163698,-0.18235 -0.05557,-0.10458 -0.05888,-0.22733 -0.05888,-2.18618 v -2.07537 h -1.176559 -1.176559 v 2.07537 c 0,1.95885 -0.0034,2.0816 -0.05888,2.18618 -0.03239,0.0609 -0.106048,0.143 -0.163697,0.18235 l -0.104818,0.0715 -2.149674,-1.2e-4 c -2.074667,-1.2e-4 -2.153221,-0.002 -2.251296,-0.0621 z m 3.774399,-2.96715 c 0,-1.95914 0.0034,-2.08152 0.05887,-2.18515 0.03239,-0.0604 0.09783,-0.13885 0.145429,-0.1744 0.08467,-0.0632 0.126436,-0.0646 1.926226,-0.0646 1.799794,0 1.841551,0.001 1.92623,0.0646 0.0476,0.0356 0.113045,0.11403 0.145424,0.1744 0.05558,0.10363 0.05888,0.22601 0.05888,2.18515 v 2.07538 h 1.525926 1.525929 l 0.0084,-3.41606 0.0084,-3.41606 0.0669,-0.0898 c 0.14907,-0.19998 0.21456,-0.21543 0.98712,-0.23287 l 0.70425,-0.0159 -0.65016,-0.58828 c -0.38063,-0.3444 -0.67588,-0.63719 -0.7122,-0.70626 -0.0596,-0.11334 -0.062,-0.1961 -0.062,-2.10668 v -1.9887 h -1.176568 -1.176559 l -4.21e-4,0.48494 c -4.21e-4,0.44312 -0.0067,0.49561 -0.07155,0.60882 -0.142497,0.24855 -0.470237,0.31392 -0.697712,0.13917 -0.05758,-0.0442 -0.617684,-0.54821 -1.244676,-1.11994 -0.693189,-0.63209 -1.157107,-1.03295 -1.183657,-1.02276 -0.02401,0.009 -1.59496,1.43042 -3.490988,3.15822 l -3.44732,3.14147 0.703812,0.0159 c 0.772063,0.0174 0.837614,0.0329 0.986674,0.23287 l 0.06692,0.0898 0.0084,3.41606 0.0084,3.41606 h 1.52593 1.525925 z"
         id="path2118" />
    </g>
  </g>
</svg>
