<?xml version="1.0" encoding="UTF-8" standalone="no"?>
<!-- Created with Inkscape (http://www.inkscape.org/) -->

<svg
   width="50mm"
   height="50mm"
   viewBox="0 0 49.999999 50"
   version="1.1"
   id="svg5"
   inkscape:version="1.1.2 (b8e25be833, 2022-02-05)"
   sodipodi:docname="firmy doradcze i konsultingowe 20x20.svg"
   xmlns:inkscape="http://www.inkscape.org/namespaces/inkscape"
   xmlns:sodipodi="http://sodipodi.sourceforge.net/DTD/sodipodi-0.dtd"
   xmlns="http://www.w3.org/2000/svg"
   xmlns:svg="http://www.w3.org/2000/svg">
  <sodipodi:namedview
     id="namedview7"
     pagecolor="#ffffff"
     bordercolor="#666666"
     borderopacity="1.0"
     inkscape:pageshadow="2"
     inkscape:pageopacity="0.0"
     inkscape:pagecheckerboard="0"
     inkscape:document-units="mm"
     showgrid="false"
     fit-margin-top="0"
     fit-margin-left="0"
     fit-margin-right="0"
     fit-margin-bottom="0"
     inkscape:zoom="3.0574074"
     inkscape:cx="86.184131"
     inkscape:cy="125.106"
     inkscape:window-width="1920"
     inkscape:window-height="1051"
     inkscape:window-x="-9"
     inkscape:window-y="-9"
     inkscape:window-maximized="1"
     inkscape:current-layer="layer1" />
  <defs
     id="defs2" />
  <g
     inkscape:label="Warstwa 1"
     inkscape:groupmode="layer"
     id="layer1"
     transform="translate(-72.281483,-72.298078)">
    <path
       id="path1329"
       style="fill:#6592e6;fill-opacity:1;stroke:#6592e6;stroke-width:0.0135135;stroke-miterlimit:4;stroke-dasharray:none;stroke-opacity:1"
       d="m 93.114661,97.293174 v 0.999394 0.999304 h 0.333163 0.333175 v 2.662958 2.66303 l -2.70108,0.0137 -2.701068,0.0137 -0.261788,0.12496 c -0.388456,0.18555 -0.640321,0.42909 -0.819055,0.79191 l -0.156626,0.31803 -0.01464,1.90463 c -0.01655,2.15786 -0.0097,2.21612 0.297332,2.52265 0.237258,0.23684 0.466441,0.30992 0.972143,0.30992 h 0.38715 v 3.33111 3.33102 h 0.333163 0.333163 v -5.32976 -5.32972 H 89.11653 88.783367 v 1.6656 1.66551 h -0.374395 c -0.306657,0 -0.397026,-0.0178 -0.49975,-0.0986 l -0.125355,-0.0986 0.0011,-1.84053 c 0.0011,-2.03249 0.0045,-2.05944 0.31427,-2.34957 0.307384,-0.28818 0.107398,-0.27616 4.59092,-0.27616 h 4.100074 l -0.0333,0.17678 c -0.0686,0.36544 -0.34433,0.67941 -0.678147,0.77209 -0.10853,0.0301 -0.797677,0.05 -1.738521,0.0502 l -1.558811,3.6e-4 v 5.49626 5.49627 h 0.333163 0.33318 v -5.16315 -5.16316 h 0.166577 0.166581 v 0.55362 c 0,0.30448 0.02636,0.64175 0.05851,0.74947 0.07556,0.25282 0.38425,0.56154 0.63711,0.63708 0.14186,0.0423 0.762434,0.0586 2.248968,0.0586 h 2.052958 v 0.22052 c 0,0.12127 0.0264,0.30865 0.0586,0.41638 0.072,0.2408 0.397587,0.578 0.601367,0.62276 0.0821,0.018 0.149277,0.0392 0.149277,0.0471 0,0.0153 -0.616187,1.31844 -1.446471,3.05932 -1.260654,2.64319 -1.518511,3.18633 -1.581061,3.33027 l -0.0668,0.1538 0.28133,0.14199 c 0.213227,0.10762 0.292157,0.12799 0.325817,0.0841 0.0244,-0.0319 0.271397,-0.53965 0.548787,-1.12854 0.277397,-0.58888 0.776114,-1.63823 1.108294,-2.33181 0.332167,-0.69358 0.696167,-1.45376 0.808894,-1.68932 l 0.20493,-0.42829 0.003,2.91473 0.003,2.91464 h 0.332787 0.33289 l 0.0122,-2.90198 0.0123,-2.90199 0.43815,0.91529 c 0.24096,0.50339 0.69832,1.46128 1.01634,2.12868 0.31803,0.66741 0.72477,1.51953 0.90393,1.89356 l 0.32582,0.67997 0.28803,-0.14533 c 0.15844,-0.08 0.28812,-0.15191 0.28812,-0.15985 0,-0.008 -0.26998,-0.5804 -0.59989,-1.27221 -0.58945,-1.23605 -0.98267,-2.06234 -1.9882,-4.17744 -0.27813,-0.58502 -0.5057,-1.07043 -0.5057,-1.07877 0,-0.008 0.0672,-0.0299 0.14926,-0.0479 0.20379,-0.0448 0.52942,-0.38196 0.60138,-0.62276 0.0322,-0.10772 0.0586,-0.2951 0.0586,-0.41638 V 108.952 h 2.05298 c 1.48653,0 2.10703,-0.0162 2.24888,-0.0586 0.25287,-0.0755 0.56166,-0.38426 0.63721,-0.63707 0.0445,-0.14882 0.0586,-1.24889 0.0586,-4.58016 v -4.384368 h 0.33316 0.33317 v -0.999304 -0.999399 h -6.99669 z m 0.666338,0.666201 h 6.330231 6.33036 v 0.333193 0.333097 h -6.33036 -6.330231 v -0.333097 z m 0.666334,1.332497 h 5.663897 5.66393 v 4.380098 4.38019 l -0.11679,0.11677 -0.1168,0.11687 h -5.42169 c -5.412887,0 -5.421897,-1.6e-4 -5.547107,-0.0986 -0.12285,-0.0966 -0.12544,-0.11014 -0.12544,-0.66174 v -0.56302 l 0.869754,-0.0165 0.869777,-0.0164 0.318177,-0.15669 c 0.364677,-0.17957 0.609437,-0.43349 0.789367,-0.81889 0.102187,-0.21889 0.125567,-0.34938 0.142847,-0.79711 l 0.0207,-0.53529 h -1.505291 -1.505291 v -2.6649 z m -3.316874,0.679599 c -0.605763,-0.0039 -1.213119,0.262619 -1.611396,0.803539 -0.28068,0.3812 -0.377745,0.68482 -0.377745,1.18168 0,0.49553 0.09703,0.80056 0.374766,1.17776 0.248307,0.33724 0.640897,0.61392 1.037472,0.73133 0.799701,0.23679 1.690581,-0.0708 2.178613,-0.75218 0.264615,-0.36946 0.357733,-0.67073 0.357733,-1.15691 0,-0.48619 -0.09312,-0.78738 -0.357733,-1.15683 -0.391789,-0.54703 -0.995964,-0.823704 -1.60171,-0.828389 z m 9.663301,0.195209 c -0.0528,-0.001 -0.10564,0.0108 -0.15216,0.035 -0.0635,0.033 -3.071275,3.04229 -3.101975,3.10352 -0.0763,0.15217 -0.0126,0.34267 0.14006,0.4187 0.0865,0.0431 0.17896,0.0457 0.264017,0.007 0.0465,-0.0208 0.36666,-0.33362 1.449554,-1.41587 l 1.389994,-1.38906 0.10506,0.10606 c 0.0578,0.0583 0.41615,0.42849 0.79634,0.82252 0.50127,0.5195 0.70848,0.72552 0.75381,0.74957 0.0765,0.0406 0.19672,0.044 0.26887,0.008 0.0255,-0.0129 0.25395,-0.23027 0.50757,-0.48309 l 0.46113,-0.45964 8e-5,0.0862 c 1.1e-4,0.11837 0.0178,0.17209 0.0799,0.24267 0.0695,0.0789 0.14244,0.10716 0.25752,0.0998 0.0693,-0.004 0.0978,-0.0133 0.14304,-0.0451 0.065,-0.0457 0.11052,-0.10771 0.12963,-0.1765 0.0177,-0.0637 0.0177,-0.98744 0,-1.05113 -0.0192,-0.069 -0.0647,-0.13083 -0.13047,-0.17707 -0.0551,-0.0388 -0.0634,-0.0405 -0.22057,-0.0447 -0.15777,-0.004 -0.16406,-0.003 -0.18472,0.0262 -0.0285,0.0407 -0.027,0.0943 0.003,0.13222 0.0224,0.0277 0.0391,0.0316 0.16035,0.0379 0.20127,0.0105 0.18613,-0.0347 0.18613,0.55306 v 0.48337 l -0.0326,0.0325 c -0.0466,0.0466 -0.12778,0.0455 -0.16547,-0.003 -0.0251,-0.032 -0.0276,-0.0526 -0.0276,-0.24471 0,-0.20081 -0.001,-0.21124 -0.0311,-0.24582 -0.0219,-0.0255 -0.0437,-0.0361 -0.074,-0.0361 -0.0388,0 -0.0949,0.0517 -0.58927,0.54532 -0.3516,0.35103 -0.55891,0.54845 -0.58156,0.5539 -0.0203,0.005 -0.0489,0.001 -0.0676,-0.009 -0.0178,-0.01 -0.40174,-0.39972 -0.85321,-0.86671 -0.45147,-0.46699 -0.83517,-0.85708 -0.85264,-0.86681 -0.0179,-0.0101 -0.0463,-0.014 -0.065,-0.009 -0.0205,0.005 -0.58351,0.56026 -1.461654,1.44108 -1.374014,1.37821 -1.430151,1.43269 -1.476171,1.43216 -0.0956,-0.001 -0.14807,-0.0956 -0.0961,-0.17335 0.0434,-0.065 2.997545,-3.01238 3.026685,-3.01978 0.0164,-0.003 0.0444,-0.003 0.0622,4.9e-4 0.0196,0.004 0.35724,0.34433 0.85609,0.86048 0.45308,0.4688 0.8414,0.86324 0.86298,0.87658 0.0253,0.0157 0.0501,0.0211 0.0695,0.0151 0.0367,-0.011 0.93285,-0.8995 0.96107,-0.95287 0.0164,-0.031 0.0171,-0.0449 0.004,-0.0768 -0.009,-0.0214 -0.0268,-0.0448 -0.0399,-0.0517 -0.0132,-0.007 -0.11835,-0.0128 -0.23378,-0.013 -0.22921,-1.8e-4 -0.26416,-0.009 -0.29398,-0.0708 -0.0213,-0.0445 -0.0117,-0.0915 0.0259,-0.12645 0.0229,-0.0213 0.0513,-0.0265 0.16686,-0.0302 0.12759,-0.003 0.14142,-0.007 0.16464,-0.0358 0.0307,-0.0379 0.0326,-0.0917 0.004,-0.13157 -0.0194,-0.0278 -0.0305,-0.0294 -0.1758,-0.0293 -0.13546,1.2e-4 -0.1638,0.003 -0.22308,0.0318 -0.11028,0.0513 -0.16539,0.14229 -0.16612,0.27384 -0.001,0.19013 0.11602,0.30135 0.33085,0.31478 l 0.11139,0.007 -0.32292,0.32305 c -0.17763,0.17769 -0.32898,0.32246 -0.33634,0.32155 -0.007,-0.001 -0.19223,-0.1874 -0.41088,-0.4146 -0.21864,-0.2272 -0.58165,-0.60222 -0.80667,-0.83341 -0.37231,-0.3825 -0.41521,-0.4223 -0.47667,-0.44271 -0.0302,-0.01 -0.0618,-0.0154 -0.0934,-0.0161 z m -9.678106,0.45759 c 0.708066,0 1.33267,0.6245 1.33267,1.33242 0,0.53527 -0.399155,1.09135 -0.897869,1.2508 -0.140447,0.0449 -0.343958,0.0803 -0.452201,0.0787 -0.708644,-0.0106 -1.315353,-0.62382 -1.315353,-1.32952 0,-0.71329 0.619334,-1.33242 1.332753,-1.33242 z m 9.703136,1.90325 c -0.0402,-3.6e-4 -0.0809,1.7e-4 -0.12173,0.002 -0.4592,0.0182 -0.828257,0.15664 -0.896567,0.33627 -0.007,0.019 -0.0124,0.41593 -0.0124,0.95399 v 0.92143 l -0.0643,-0.0327 c -0.18832,-0.0954 -0.628227,-0.14774 -0.965894,-0.11491 -0.369387,0.0359 -0.620067,0.13448 -0.717797,0.2821 l -0.0368,0.0554 -0.003,0.81694 c -0.003,0.72039 -0.001,0.82341 0.0173,0.8724 0.0625,0.1645 0.34902,0.2853 0.775857,0.32705 0.11484,0.0112 0.337937,0.007 0.477687,-0.0103 0.249867,-0.0299 0.442917,-0.0885 0.565087,-0.17149 l 0.0495,-0.0338 0.0374,0.0266 c 0.103947,0.074 0.313247,0.14302 0.526827,0.17373 0.14782,0.0212 0.51982,0.0212 0.66764,0 0.21635,-0.0311 0.43402,-0.10347 0.52395,-0.17419 0.0336,-0.0265 0.0351,-0.0265 0.0693,-0.003 0.10842,0.0764 0.30015,0.14051 0.5259,0.17567 0.15321,0.0239 0.56805,0.0206 0.72375,-0.006 0.32975,-0.0558 0.54954,-0.17592 0.59403,-0.32436 0.0118,-0.0392 0.0156,-0.387 0.0155,-1.3579 -3.3e-4,-1.4706 0.007,-1.36079 -0.1033,-1.46061 -0.15918,-0.14351 -0.4423,-0.21386 -0.86503,-0.21476 -0.34528,-0.001 -0.59268,0.0373 -0.75959,0.11723 l -0.0632,0.0302 v -0.39441 c 0,-0.21693 -0.003,-0.41302 -0.008,-0.43583 -0.0142,-0.071 -0.10236,-0.15592 -0.22195,-0.21372 -0.18653,-0.0901 -0.44791,-0.14103 -0.72943,-0.14366 z m -0.035,0.19688 c 0.13029,4e-5 0.26065,0.007 0.34015,0.0194 0.24405,0.0396 0.44884,0.13074 0.44884,0.19977 0,0.062 -0.22047,0.15677 -0.45778,0.19688 v 9e-5 c -0.12172,0.0206 -0.36785,0.0345 -0.46438,0.0264 -0.29913,-0.0255 -0.62818,-0.13122 -0.659177,-0.21196 -0.01,-0.0251 0.0406,-0.08 0.101817,-0.11128 0.0718,-0.0367 0.21862,-0.0786 0.35094,-0.10002 0.0792,-0.0129 0.20931,-0.0193 0.33959,-0.0193 z m 0.79569,0.47667 v 0.1271 c 0,0.1261 -3.4e-4,0.12729 -0.0426,0.1659 -0.0803,0.0733 -0.24272,0.12995 -0.4749,0.16562 -0.37573,0.0577 -0.83496,-0.0143 -1.03171,-0.16181 l -0.0431,-0.0323 v -0.13129 -0.13119 l 0.0712,0.0325 c 0.0392,0.0179 0.12053,0.0474 0.18072,0.0654 0.39823,0.11917 0.96998,0.086 1.29061,-0.075 z m -1.57621,0.52282 c 0.002,3.6e-4 0.004,0.001 0.007,0.003 0.30688,0.13254 0.61899,0.18395 0.93547,0.15399 0.24597,-0.0233 0.39476,-0.0608 0.61041,-0.15399 0.0213,-0.009 0.0233,0.001 0.0233,0.12356 0,0.12132 -0.003,0.13609 -0.0299,0.16172 -0.0967,0.0914 -0.35165,0.15895 -0.67714,0.17939 -0.15888,0.01 -0.18203,0.0235 -0.18203,0.10616 0,0.0729 0.0354,0.0904 0.17617,0.0874 0.23146,-0.004 0.48522,-0.0519 0.63153,-0.1165 0.0392,-0.0173 0.0736,-0.0315 0.0763,-0.0315 0.003,0 0.005,0.0597 0.005,0.13268 0,0.11422 -0.003,0.13629 -0.0262,0.15873 -0.0636,0.0636 -0.24723,0.13047 -0.45666,0.16619 l 9e-5,-9e-5 c -0.14784,0.0252 -0.49272,0.0247 -0.6385,-0.001 -0.15246,-0.0269 -0.3073,-0.0773 -0.39152,-0.12776 l -0.073,-0.0437 -0.003,-0.14292 -0.003,-0.14282 0.0502,0.0219 c 0.0844,0.0367 0.20307,0.0717 0.24327,0.0717 0.0497,0 0.0922,-0.0462 0.0922,-0.10003 0,-0.0546 -0.0265,-0.0759 -0.13838,-0.11147 -0.10822,-0.0344 -0.17531,-0.0674 -0.21656,-0.10635 -0.0271,-0.0256 -0.0299,-0.0404 -0.0299,-0.16171 0,-0.10685 10e-4,-0.12834 0.0161,-0.12589 z m 2.6403,0.0372 c 0.15013,0.003 0.29667,0.0206 0.41804,0.0515 0.19699,0.0504 0.33204,0.13225 0.30088,0.18237 -0.0364,0.0585 -0.17122,0.11932 -0.36324,0.16384 -0.12888,0.0299 -0.568,0.0449 -0.71416,0.0244 -0.28484,-0.0399 -0.5408,-0.15436 -0.49826,-0.22275 0.0212,-0.034 0.0913,-0.0779 0.17533,-0.10969 0.17087,-0.0647 0.4312,-0.0958 0.68141,-0.0898 z m 0.7111,0.49351 c 0.0146,-0.003 0.0162,0.0179 0.0162,0.11975 0,0.10903 -0.003,0.13122 -0.0262,0.15352 -0.0636,0.0636 -0.24723,0.13047 -0.45666,0.16619 v 1.7e-4 c -0.14816,0.0251 -0.49303,0.0246 -0.63851,-0.001 -0.20023,-0.0355 -0.38327,-0.1034 -0.44494,-0.16506 -0.0223,-0.0223 -0.0261,-0.0445 -0.0261,-0.15353 0,-0.11616 0.002,-0.12659 0.0232,-0.11742 0.10613,0.0458 0.33798,0.11504 0.44121,0.13166 0.16716,0.0269 0.50176,0.0266 0.66448,-5e-4 0.10286,-0.0171 0.3395,-0.0877 0.44018,-0.13119 0.003,-10e-4 0.004,-0.002 0.007,-0.003 z m -1.77519,0.50161 v 0.12924 c 0,0.11701 -0.003,0.13179 -0.0298,0.15659 -0.081,0.0743 -0.3015,0.14645 -0.53409,0.17483 v 1e-4 c -0.36627,0.0447 -0.83017,-0.0333 -0.98797,-0.166 -0.0399,-0.0336 -0.0404,-0.0355 -0.0404,-0.16366 v -0.12971 l 0.10945,0.0442 c 0.40964,0.16537 0.96594,0.16518 1.37277,-4.9e-4 z m 0.19897,0.001 0.10954,0.0444 c 0.19606,0.0792 0.44644,0.12459 0.68671,0.12459 0.24027,0 0.49056,-0.0454 0.68663,-0.12459 l 0.10953,-0.0444 v 0.12859 c 0,0.11619 -0.003,0.13122 -0.0299,0.15641 -0.0789,0.0736 -0.30017,0.14581 -0.53409,0.17436 -0.30224,0.0369 -0.67512,-0.008 -0.88309,-0.10607 -0.13996,-0.0661 -0.14536,-0.0742 -0.14536,-0.2247 z m -2.734574,0.0148 c 0.17357,0.004 0.34575,0.0315 0.500967,0.0805 0.10978,0.0347 0.22548,0.0995 0.23861,0.13372 0.029,0.0754 -0.25801,0.19364 -0.559307,0.23037 -0.283227,0.0345 -0.617787,-3.6e-4 -0.842594,-0.0878 -0.0912,-0.0355 -0.1695,-0.0866 -0.18175,-0.11854 -0.0198,-0.0516 0.1238,-0.13052 0.334847,-0.18404 0.16074,-0.0408 0.33567,-0.0587 0.509227,-0.0542 z m -0.845284,0.49901 c 0.002,2e-5 0.0467,0.0176 0.0991,0.0389 0.406177,0.16556 0.983544,0.16608 1.383001,10e-4 0.0537,-0.0221 0.0999,-0.0403 0.10256,-0.0403 0.014,0 0.003,0.24928 -0.0118,0.26741 -0.0549,0.0674 -0.25662,0.14408 -0.461687,0.1754 v -1.1e-4 c -0.23738,0.0362 -0.491647,0.0345 -0.682807,-0.004 -0.13233,-0.0271 -0.315277,-0.0913 -0.371607,-0.13046 l -0.053,-0.037 -0.003,-0.13537 c -0.002,-0.0745 -0.002,-0.13531 0,-0.13529 z m 1.791371,0 c 0.002,2e-5 0.0467,0.0176 0.0991,0.0389 0.40619,0.16556 0.98355,0.16608 1.38302,10e-4 0.0537,-0.0221 0.0999,-0.0403 0.10256,-0.0403 0.003,0 0.005,0.0561 0.005,0.12459 0,0.0993 -0.005,0.13013 -0.0233,0.15203 -0.0543,0.0642 -0.29042,0.14645 -0.49426,0.17214 v -9e-5 c -0.33257,0.0419 -0.61179,0.0183 -0.86922,-0.0738 -0.0511,-0.0183 -0.11673,-0.0491 -0.14592,-0.0686 l -0.0531,-0.0354 -0.003,-0.13548 c -0.002,-0.0745 -0.002,-0.1355 0,-0.13548 z m 3.376057,0 c 0.003,0 0.004,0.0597 0.004,0.13259 v 0.13258 l -0.0525,0.0381 c -0.0683,0.0495 -0.26627,0.11449 -0.42521,0.13966 l -9e-5,1e-4 c -0.38953,0.0617 -0.84593,0.003 -1.05488,-0.1365 l -0.053,-0.0354 -0.003,-0.13548 c -0.002,-0.0745 -0.002,-0.1355 0,-0.13547 0.002,3e-5 0.0466,0.0174 0.0991,0.0388 0.40337,0.16424 0.98878,0.16504 1.38273,0.001 0.0539,-0.0223 0.10018,-0.0407 0.10284,-0.0407 z m -3.577917,0.5056 v 0.13101 0.13092 l -0.0485,0.04 c -0.0606,0.0499 -0.19146,0.0991 -0.359497,0.135 -0.14989,0.032 -0.497527,0.0454 -0.646887,0.0249 -0.11228,-0.0154 -0.30955,-0.0669 -0.391507,-0.10216 -0.0329,-0.0142 -0.0792,-0.0421 -0.10284,-0.062 l -0.043,-0.0362 v -0.12962 -0.12961 l 0.1126,0.0452 c 0.417567,0.16762 1.006984,0.1615 1.405251,-0.0146 z m 1.990347,0 0.0746,0.0329 c 0.41052,0.18152 1.03289,0.18152 1.44341,0 l 0.0744,-0.0329 v 0.13101 0.13092 l -0.0485,0.04 c -0.0606,0.0499 -0.19145,0.0991 -0.3595,0.135 -0.38907,0.0831 -0.95982,0.0135 -1.14124,-0.1392 l -0.0431,-0.0362 v -0.13082 z m -0.19897,0.001 v 0.13045 0.13036 l -0.0485,0.04 c -0.0606,0.0499 -0.19145,0.0991 -0.3595,0.135 -0.0913,0.0195 -0.19181,0.029 -0.34164,0.0322 -0.23851,0.005 -0.25347,0.003 -0.43674,-0.0341 -0.16851,-0.035 -0.29601,-0.0825 -0.35736,-0.13306 l -0.0485,-0.04 v -0.1298 -0.1298 l 0.11261,0.0452 c 0.41315,0.16586 0.9821,0.16261 1.38803,-0.008 z m -1.795937,0.51482 c 0.003,0 0.004,0.0613 0.001,0.13603 l -0.003,0.13595 -0.0614,0.041 c -0.073,0.0487 -0.23956,0.10352 -0.397567,0.13055 -0.14592,0.0249 -0.388557,0.0351 -0.516217,0.0216 -0.21696,-0.023 -0.444727,-0.0869 -0.542377,-0.15213 l -0.0614,-0.041 -0.003,-0.13761 c -0.003,-0.10823 -1.3e-4,-0.13595 0.0133,-0.13008 0.207877,0.0908 0.383797,0.13492 0.620457,0.15548 0.298167,0.0259 0.638754,-0.024 0.873844,-0.12794 0.0395,-0.0175 0.0744,-0.0318 0.0773,-0.0318 z m 2.006547,0.003 c 10e-4,-3.6e-4 0.003,-1.5e-4 0.004,5e-4 0.3075,0.13215 0.61798,0.18345 0.94022,0.15548 0.2407,-0.0209 0.40803,-0.0628 0.61989,-0.1554 0.0134,-0.006 0.0162,0.0219 0.0132,0.13008 l -0.003,0.13763 -0.0614,0.041 c -0.0699,0.0467 -0.23371,0.10135 -0.38976,0.12998 -0.13487,0.0247 -0.39516,0.0357 -0.52413,0.022 -0.21675,-0.0229 -0.4446,-0.0868 -0.54227,-0.15203 l -0.0614,-0.041 -0.003,-0.13762 c -0.003,-0.0947 -5e-4,-0.12778 0.009,-0.13072 z m -1.791387,1e-4 c 10e-4,-3.6e-4 0.003,-1.8e-4 0.004,4.9e-4 0.29892,0.1306 0.61815,0.18335 0.94024,0.15539 0.2407,-0.0209 0.40803,-0.0628 0.61989,-0.15539 0.0134,-0.006 0.0162,0.0219 0.0132,0.13008 l -0.003,0.13762 -0.0614,0.041 c -0.0699,0.0467 -0.23361,0.10135 -0.38965,0.12999 -0.13488,0.0247 -0.39526,0.0356 -0.52423,0.0221 -0.21677,-0.0229 -0.44461,-0.0868 -0.54229,-0.15203 l -0.0614,-0.041 -0.003,-0.13762 c -0.003,-0.0947 -5e-4,-0.12776 0.009,-0.13063 z m -0.553807,2.65551 h 0.666324 0.66633 v 0.21623 c 0,0.1662 -0.027,0.24336 -0.11679,0.33311 -0.10656,0.10654 -0.15405,0.11686 -0.54088,0.11686 -0.356997,0 -0.443977,-0.0156 -0.549537,-0.0986 -0.105177,-0.0827 -0.125447,-0.13647 -0.125447,-0.3331 z m -8.662414,1.9986 v 3.16457 3.16446 h 0.333157 0.33318 v -3.16446 -3.16457 h -0.33318 z" />
  </g>
</svg>
