<?xml version="1.0" encoding="UTF-8" standalone="no"?>
<!-- Created with Inkscape (http://www.inkscape.org/) -->

<svg
   width="50mm"
   height="50mm"
   viewBox="0 0 49.999999 50"
   version="1.1"
   id="svg5"
   inkscape:version="1.1.2 (b8e25be833, 2022-02-05)"
   sodipodi:docname="galerie_handlowe_20x20.svg"
   xmlns:inkscape="http://www.inkscape.org/namespaces/inkscape"
   xmlns:sodipodi="http://sodipodi.sourceforge.net/DTD/sodipodi-0.dtd"
   xmlns="http://www.w3.org/2000/svg"
   xmlns:svg="http://www.w3.org/2000/svg">
  <sodipodi:namedview
     id="namedview7"
     pagecolor="#ffffff"
     bordercolor="#666666"
     borderopacity="1.0"
     inkscape:pageshadow="2"
     inkscape:pageopacity="0.0"
     inkscape:pagecheckerboard="0"
     inkscape:document-units="mm"
     showgrid="false"
     fit-margin-top="0"
     fit-margin-left="0"
     fit-margin-right="0"
     fit-margin-bottom="0"
     inkscape:zoom="3.0574074"
     inkscape:cx="77.680194"
     inkscape:cy="116.27499"
     inkscape:window-width="1920"
     inkscape:window-height="1051"
     inkscape:window-x="-9"
     inkscape:window-y="-9"
     inkscape:window-maximized="1"
     inkscape:current-layer="layer1" />
  <defs
     id="defs2" />
  <g
     inkscape:label="Warstwa 1"
     inkscape:groupmode="layer"
     id="layer1"
     transform="translate(-49.757394,-115.88569)">
    <g
       transform="matrix(0.19926025,0,0,0.21006817,-16.618743,124.85599)"
       style="fill:#6592e6;fill-opacity:1;stroke:none;stroke-width:1.00017;stroke-miterlimit:4;stroke-dasharray:none"
       id="g1019">
      <path
         style="fill:#6592e6;fill-opacity:1;stroke:none;stroke-width:1.00017;stroke-miterlimit:4;stroke-dasharray:none"
         d="m 462.49397,170.50709 c -0.31707,-0.15329 -0.71847,-0.62148 -0.892,-1.04042 -0.40497,-0.97769 0.0375,-2.15478 0.96964,-2.57949 0.44452,-0.20253 3.42442,-0.2989 9.24254,-0.2989 h 8.5865 v -10.2898 -10.28981 l -0.99218,-0.15341 c -0.54571,-0.0844 -5.20735,-0.23467 -10.3592,-0.33398 -8.61595,-0.16609 -9.40621,-0.21976 -9.85573,-0.66929 -0.65222,-0.65222 -0.6407,-2.18881 0.0214,-2.85089 0.28055,-0.28055 1.08422,-0.59633 1.78593,-0.70173 1.37376,-0.20634 16.06761,0.0565 18.14303,0.32458 l 1.25677,0.16231 v -8.86818 -8.86819 l -2.57969,-0.30988 c -1.41882,-0.17044 -3.97035,-0.40048 -5.67006,-0.51121 -3.22034,-0.20978 -3.77762,-0.41414 -4.20668,-1.54267 -0.27106,-0.71293 0.0974,-1.85944 0.75902,-2.36214 0.68642,-0.52151 5.07594,-0.38787 10.44424,0.31797 l 1.26037,0.16572 -0.0697,-8.82272 -0.0697,-8.82272 -2.51354,-0.4478 c -4.71209,-0.83948 -10.15193,-1.12588 -14.61823,-0.76963 -2.21919,0.17701 -5.16599,0.52334 -6.54843,0.76963 l -2.51355,0.4478 -0.0659,4.36563 c -0.0696,4.60914 -0.22507,5.30252 -1.29849,5.7916 -0.98444,0.44854 -1.38614,0.36206 -2.22779,-0.47959 l -0.7734,-0.77339 v -3.84937 -3.84937 l -2.3151,0.80924 c -3.49731,1.22247 -7.80568,3.4015 -11.00818,5.56756 -4.34889,2.94145 -4.34692,2.94037 -5.06312,2.76062 -0.35693,-0.0896 -0.89037,-0.42201 -1.18544,-0.73873 -0.51828,-0.55631 -0.53649,-0.89835 -0.53649,-10.07669 v -9.500833 l 1.78593,-1.85447 c 5.03166,-5.22474 12.55115,-9.892085 19.71114,-12.234693 12.21687,-3.997121 25.16359,-3.153683 36.71126,2.391623 5.14125,2.468879 11.03686,6.746373 14.48593,10.510103 l 1.12448,1.227063 v 38.647097 38.64711 l -0.64943,0.64943 -0.64943,0.64943 -19.52505,-0.0179 c -13.09913,-0.012 -19.71477,-0.10963 -20.10152,-0.29661 z m 36.6921,-12.89272 v -8.97391 l -1.38906,-0.29803 c -2.41944,-0.5191 -9.07097,-1.56466 -11.15576,-1.75358 l -2.00726,-0.18189 v 10.09066 10.09066 h 7.27604 7.27604 z m 0,-20.92401 c 0,-4.2201 -0.0343,-7.67291 -0.0762,-7.67291 -0.0419,0 -1.61948,-0.54429 -3.50573,-1.20953 -2.84063,-1.00183 -10.0423,-3.02381 -10.76988,-3.02381 -0.11016,0 -0.20029,3.90014 -0.20029,8.66698 v 8.66698 l 3.9026,0.47785 c 2.14643,0.26281 5.33136,0.75264 7.07761,1.0885 1.74625,0.33586 3.26429,0.626 3.37343,0.64476 0.10914,0.0188 0.19844,-3.41871 0.19844,-7.63882 z m -0.0618,-19.245 -0.0705,-7.07417 -1.71979,-1.13395 c -2.34725,-1.54765 -7.57688,-4.10097 -10.3849,-5.07031 l -2.3151,-0.79918 v 8.5273 8.5273 l 3.63802,0.8669 c 2.00091,0.47679 5.18583,1.38767 7.0776,2.02416 1.89177,0.6365 3.53083,1.16826 3.64234,1.1817 0.11152,0.0134 0.17105,-3.15896 0.1323,-7.04975 z m -58.94028,-14.76058 c 2.81507,-1.40216 7.09409,-3.093825 8.6651,-3.42566 l 0.8599,-0.181631 v -8.033715 -8.033716 l -1.91823,0.880761 c -4.39298,2.017051 -8.30914,4.648703 -11.71435,7.872015 l -2.24242,2.122639 v 6.186057 6.18605 l 1.78594,-1.09453 c 0.98226,-0.60198 3.03609,-1.71721 4.56406,-2.47827 z m 59.00208,-3.109321 v -5.629492 l -1.78594,-1.749295 c -2.32063,-2.273017 -5.16874,-4.435216 -8.13593,-6.17655 -2.01859,-1.184632 -4.15984,-2.246421 -4.53023,-2.246421 -0.055,0 -0.0987,3.423047 -0.0972,7.606771 l 0.003,7.60677 2.8415,0.915085 c 1.56283,0.503303 4.74651,1.885003 7.07484,3.070453 2.32834,1.18545 4.32263,2.17265 4.43177,2.19377 0.10914,0.0211 0.19844,-2.49487 0.19844,-5.591091 z m -41.14271,-2.345611 c 2.86848,-0.436682 4.92786,-0.563901 9.12813,-0.563901 4.20027,0 6.25965,0.127219 9.12812,0.563901 2.03729,0.310147 3.79347,0.564547 3.90261,0.565335 0.10914,7.94e-4 0.19843,-3.557397 0.19843,-7.90708 v -7.908515 l -2.05052,-0.549957 c -4.25618,-1.141523 -6.88348,-1.465916 -11.8401,-1.461898 -4.6715,0.0038 -7.67844,0.340256 -11.1125,1.243463 l -1.32292,0.347947 -0.07,8.118738 c -0.0385,4.465304 0.021,8.118091 0.13229,8.117302 0.11124,-7.94e-4 1.86913,-0.255188 3.90642,-0.565335 z"
         id="path1000"
         sodipodi:nodetypes="sssscccsssssscccssssscccssscssscccssssscsssscccccsssccssccccccssssscsssssccsscccsssscsscccsscccssccsssccsssccssssscssscssss" />
      <path
         style="opacity:0.997;fill:#6592e6;fill-opacity:1;stroke:none;stroke-width:1.00017;stroke-miterlimit:4;stroke-dasharray:none"
         d="m 419.95155,170.59404 c -2.28162,-0.5712 -4.1752,-2.64412 -4.58136,-5.01527 -0.28718,-1.67659 0.25404,-3.60323 1.38254,-4.92153 0.25864,-0.30214 0.44904,-0.56097 0.42311,-0.57518 -0.0259,-0.0142 -0.33475,-0.16833 -0.68625,-0.34246 -0.35151,-0.17414 -0.99958,-0.67309 -1.44019,-1.1088 -1.85692,-1.83632 -2.31143,-4.53368 -1.17045,-6.94629 0.72479,-1.53259 2.63335,-3.02289 4.19003,-3.27181 0.31709,-0.0507 0.52191,-0.14623 0.49154,-0.22925 -0.0286,-0.0783 -1.93724,-5.80794 -4.24135,-12.73259 -2.78335,-8.36494 -4.29671,-12.73425 -4.50938,-13.01926 -0.51058,-0.68425 -0.91859,-0.7853 -3.17087,-0.7853 -2.25982,0 -2.64026,-0.1027 -3.22614,-0.87083 -0.45023,-0.59029 -0.49056,-1.72656 -0.0807,-2.27546 0.62117,-0.83199 0.77177,-0.87637 3.12276,-0.9203 2.42776,-0.0454 3.29354,0.0722 4.40599,0.59829 1.62271,0.76739 2.671,2.06797 3.39809,4.21589 l 0.43817,1.2944 19.94146,0.0335 19.94146,0.0335 0.59084,0.27318 c 0.87629,0.40519 1.63738,1.1582 2.04933,2.02758 0.64919,1.37006 0.65877,1.31349 -2.07078,12.24004 -1.58988,6.36445 -2.56324,10.0225 -2.80583,10.54496 -0.6413,1.38106 -1.85225,2.47346 -3.48417,3.14303 -0.66963,0.27476 -0.6871,0.27514 -15.45626,0.33898 -14.68446,0.0635 -14.78828,0.0658 -15.13878,0.32744 -0.6707,0.50086 -0.87998,0.90935 -0.87998,1.71768 0,0.80834 0.20929,1.21684 0.88002,1.71767 0.35123,0.26227 0.43416,0.26385 17.14261,0.32745 16.70843,0.0636 16.79136,0.0652 17.1426,0.32745 0.67073,0.50082 0.88001,0.90933 0.88001,1.71767 0,1.24144 -0.69942,1.93631 -2.03457,2.02133 l -0.81754,0.0521 0.50109,0.77528 c 0.58504,0.90516 0.86541,1.74669 0.96729,2.90324 0.25074,2.84655 -1.86842,5.73079 -4.68772,6.3801 -2.71877,0.62615 -5.58082,-0.70578 -6.81421,-3.17117 -1.03616,-2.07116 -0.93357,-4.23185 0.29088,-6.12631 l 0.51022,-0.7894 h -7.66772 -7.66772 l 0.44888,0.67606 c 2.19502,3.30594 0.81425,7.68777 -2.89226,9.17843 -0.78368,0.31518 -2.77815,0.44539 -3.61464,0.23598 z m 2.26806,-4.12945 c 1.31331,-0.54873 1.63346,-2.27048 0.61211,-3.29182 -0.82911,-0.82912 -2.01301,-0.82912 -2.84211,0 -1.58069,1.58069 0.16343,4.1553 2.23,3.29182 z m 24.54145,0 c 1.31329,-0.54873 1.63345,-2.27048 0.61211,-3.29182 -1.43608,-1.43608 -3.78933,-0.1498 -3.41141,1.86465 0.22575,1.20338 1.62615,1.91735 2.7993,1.42717 z m -17.5546,-18.3276 c -4.9e-4,-0.0528 -0.14393,-0.92989 -0.31833,-1.94926 -0.1744,-1.01935 -0.31765,-1.89652 -0.31832,-1.94925 -4.9e-4,-0.0527 -1.58916,-0.0959 -3.52996,-0.0959 -2.76955,0 -3.51589,0.0344 -3.4691,0.15978 0.0328,0.0879 0.33944,1.00818 0.68143,2.04512 l 0.62182,1.88535 h 3.16683 c 1.74177,0 3.1663,-0.0431 3.16563,-0.0959 z m 8.74739,-0.19173 c 0.0326,-0.15818 0.0927,-0.77651 0.13348,-1.37407 0.0408,-0.59755 0.10813,-1.38844 0.14961,-1.75752 l 0.0754,-0.67106 h -2.83538 c -2.63984,0 -2.83092,0.0155 -2.77058,0.22369 0.0357,0.12303 0.19515,1.04333 0.35447,2.04512 l 0.28967,1.82144 h 2.27202 c 2.25338,0 2.2725,-0.003 2.33129,-0.2876 z m 9.70195,0.11325 c 0.71512,-0.2988 1.04013,-0.82972 1.40893,-2.30152 0.18619,-0.74302 0.33852,-1.41022 0.33852,-1.48266 0,-0.0872 -1.18306,-0.13172 -3.50032,-0.13172 h -3.50033 l -0.0754,0.67106 c -0.0415,0.36908 -0.1088,1.15997 -0.14961,1.75752 -0.0408,0.59756 -0.10087,1.21589 -0.13348,1.37407 l -0.0592,0.2876 h 2.62685 c 1.92944,0 2.73763,-0.0462 3.04413,-0.17435 z m -19.85414,-8.21562 c 0,-0.21208 -0.45953,-3.06354 -0.57906,-3.59316 l -0.0649,-0.28759 h -4.15171 c -2.28345,0 -4.15172,0.043 -4.15172,0.0957 0,0.0527 0.29237,0.97297 0.64971,2.04512 l 0.64971,1.94938 h 3.82399 c 3.45794,0 3.82399,-0.0201 3.82399,-0.20948 z m 10.97253,-1.55471 c 0.0813,-0.97031 0.14782,-1.89062 0.14782,-2.04512 v -0.28092 h -3.77069 c -3.40856,0 -3.7707,0.0201 -3.7707,0.20948 0,0.21208 0.45954,3.06354 0.57907,3.59316 l 0.0649,0.28759 h 3.30089 3.30089 z m 12.20174,-0.18506 c 0.26284,-1.07209 0.47665,-1.9924 0.47516,-2.04512 -0.002,-0.0528 -1.89185,-0.0959 -4.20079,-0.0959 h -4.19807 l -0.14781,1.76419 c -0.0813,0.97031 -0.14781,1.89062 -0.14781,2.04512 v 0.28092 h 3.87073 3.87072 z m -24.50005,-6.45491 c -0.0356,-0.12303 -0.19516,-1.04333 -0.35447,-2.04512 l -0.28967,-1.82143 h -4.88566 -4.88566 l 0.63012,1.88534 c 0.34657,1.03694 0.65702,1.95724 0.6899,2.04512 0.0462,0.12371 1.08692,0.15978 4.61001,0.15978 4.27304,0 4.54629,-0.0137 4.48543,-0.22369 z m 12.87555,-0.44737 c 0.0415,-0.36908 0.10881,-1.15996 0.14961,-1.75752 0.0408,-0.59756 0.10087,-1.21589 0.13347,-1.37407 l 0.0593,-0.28759 h -4.8596 c -2.67277,0 -4.85904,0.0431 -4.85836,0.0959 4.8e-4,0.0528 0.14391,0.92989 0.31832,1.94926 0.1744,1.01936 0.31764,1.89653 0.31832,1.94925 4.8e-4,0.0527 1.95025,0.0959 4.33238,0.0959 h 4.33116 z m 13.66963,-1.27819 c 0.26282,-1.0721 0.47664,-1.9924 0.47515,-2.04513 -0.002,-0.0528 -2.18735,-0.0959 -4.85745,-0.0959 h -4.85472 l -0.0593,0.28759 c -0.0326,0.15818 -0.0927,0.77651 -0.13348,1.37407 -0.0408,0.59756 -0.10813,1.38844 -0.14961,1.75752 l -0.0755,0.67106 h 4.58847 4.58847 z"
         id="path998" />
    </g>
  </g>
</svg>
