<?xml version="1.0" encoding="UTF-8" standalone="no"?>
<!-- Created with Inkscape (http://www.inkscape.org/) -->

<svg
   width="50mm"
   height="50mm"
   viewBox="0 0 50 50"
   version="1.1"
   id="svg5"
   inkscape:version="1.1.2 (b8e25be833, 2022-02-05)"
   sodipodi:docname="hotelarstwo_20x20.svg"
   xmlns:inkscape="http://www.inkscape.org/namespaces/inkscape"
   xmlns:sodipodi="http://sodipodi.sourceforge.net/DTD/sodipodi-0.dtd"
   xmlns="http://www.w3.org/2000/svg"
   xmlns:svg="http://www.w3.org/2000/svg">
  <sodipodi:namedview
     id="namedview7"
     pagecolor="#ffffff"
     bordercolor="#666666"
     borderopacity="1.0"
     inkscape:pageshadow="2"
     inkscape:pageopacity="0.0"
     inkscape:pagecheckerboard="0"
     inkscape:document-units="mm"
     showgrid="false"
     fit-margin-top="0"
     fit-margin-left="0"
     fit-margin-right="0"
     fit-margin-bottom="0"
     inkscape:zoom="1.5287037"
     inkscape:cx="30.417929"
     inkscape:cy="204.42156"
     inkscape:window-width="1920"
     inkscape:window-height="1051"
     inkscape:window-x="-9"
     inkscape:window-y="-9"
     inkscape:window-maximized="1"
     inkscape:current-layer="layer1" />
  <defs
     id="defs2" />
  <g
     inkscape:label="Warstwa 1"
     inkscape:groupmode="layer"
     id="layer1"
     transform="translate(-13.33897,-35.840814)">
    <path
       style="fill:#6592e6;fill-opacity:1;stroke:#5599ff;stroke-width:0;stroke-miterlimit:4;stroke-dasharray:none"
       d="m 27.703605,80.592828 c -0.03936,-0.01451 -0.119923,-0.07172 -0.178995,-0.12695 l -0.107391,-0.100562 v -6.843752 -6.843747 l 0.117161,-0.120531 c 0.142223,-0.146326 0.353121,-0.157348 0.510006,-0.02668 l 0.112684,0.09389 0.02386,3.797667 0.02386,3.797689 h 9.212357 9.212352 l 0.01298,-1.003939 c 0.01394,-1.081051 0.02585,-1.132652 0.285372,-1.234739 0.126551,-0.04978 0.334082,0.01937 0.424182,0.141393 0.04971,0.06726 0.06235,0.89442 0.06356,4.163384 l 0.0016,4.079392 -0.118942,0.114961 c -0.154761,0.149563 -0.371081,0.149563 -0.525837,0 l -0.118942,-0.11496 v -1.489122 -1.489133 h -9.236233 -9.236222 v 1.489133 c 0,1.481577 -5.36e-4,1.489641 -0.107402,1.590254 -0.122986,0.115798 -0.266094,0.164681 -0.369923,0.12634 z M 46.653378,75.81576 v -0.736558 h -9.236221 -9.236228 v 0.703821 c 0,0.387109 0.01432,0.718565 0.0318,0.736569 0.01749,0.01797 4.173802,0.03276 9.236221,0.03276 h 9.204407 z M 31.307404,73.672416 c -1.804505,-0.277087 -2.536789,-2.504196 -1.254784,-3.816207 0.437393,-0.447623 0.945628,-0.667773 1.544446,-0.668973 1.236621,-0.0022 2.230588,1.092654 2.156941,2.376498 -0.06589,1.14853 -0.90014,2.017138 -2.024768,2.108124 -0.153248,0.01244 -0.343076,0.01256 -0.421835,5.47e-4 z m 0.847853,-0.940027 c 0.261293,-0.11889 0.55397,-0.409556 0.67946,-0.674749 0.05865,-0.123947 0.09899,-0.333605 0.110914,-0.576408 0.01652,-0.336278 0.0039,-0.413356 -0.108367,-0.648877 -0.157577,-0.331333 -0.482617,-0.632233 -0.800182,-0.740754 -0.309377,-0.105686 -0.796922,-0.07573 -1.065948,0.0656 -0.236732,0.124365 -0.575812,0.494625 -0.676553,0.738757 -0.110973,0.268949 -0.102162,0.817525 0.01749,1.0896 0.179917,0.409093 0.54518,0.73552 0.939578,0.839655 0.231353,0.06117 0.66269,0.01685 0.903604,-0.09288 z m 2.550883,0.893499 c -0.0734,-0.04096 -0.15395,-0.129885 -0.178995,-0.197648 -0.02633,-0.07128 -0.04553,-1.013589 -0.04553,-2.23394 0,-2.220757 0.01051,-2.337588 0.216932,-2.419081 0.04247,-0.01685 1.648893,-0.03042 3.569761,-0.03019 3.2827,3.68e-4 3.515436,0.005 3.87436,0.09489 1.844636,0.45672 3.180827,1.98935 3.414105,3.916027 0.06795,0.561172 0.03653,0.729621 -0.158961,0.852245 -0.14878,0.09334 -0.280722,0.09567 -5.355372,0.09389 -4.556468,-0.0011 -5.219417,-0.01111 -5.336298,-0.07618 z m 10.037937,-0.867872 c 0,-0.220914 -0.201122,-0.851295 -0.394843,-1.237556 -0.152502,-0.304076 -0.30182,-0.5013 -0.653208,-0.862787 -0.51443,-0.529222 -0.941183,-0.792127 -1.601132,-0.98641 -0.377988,-0.111261 -0.414048,-0.112578 -3.591829,-0.129181 l -3.210001,-0.0168 v 1.672098 1.672103 h 4.725509 4.725504 z M 31.017082,65.922055 c -1.181575,-0.264491 -2.041917,-1.371761 -2.041917,-2.627941 0,-1.147414 0.678005,-2.136949 1.72957,-2.524286 0.951362,-0.350421 1.931734,-0.133753 2.679827,0.592241 0.529934,0.514281 0.810656,1.183321 0.810656,1.932045 0,1.720406 -1.540794,2.994468 -3.178136,2.627941 z m 1.371291,-0.851899 c 0.378971,-0.186062 0.757097,-0.58018 0.938307,-0.977966 0.114203,-0.250689 0.128681,-0.340625 0.128681,-0.799108 0,-0.484217 -0.0098,-0.537091 -0.155971,-0.842573 -0.824428,-1.722784 -3.273895,-1.346842 -3.599091,0.552399 -0.129926,0.758781 0.304656,1.662699 0.968034,2.013482 0.376835,0.199261 0.570428,0.242585 1.000542,0.223889 0.337001,-0.01457 0.463949,-0.04465 0.719498,-0.170123 z m -0.913905,-1.077462 -0.405726,-0.2812 -0.01314,-0.829558 c -0.01496,-0.946557 0.0058,-1.011859 0.323377,-1.011859 0.307173,0 0.355352,0.106807 0.374472,0.829882 l 0.01647,0.62326 0.257079,0.169587 c 0.291656,0.192407 0.383388,0.354717 0.311065,0.550412 -0.05399,0.146086 -0.185007,0.233539 -0.347362,0.231831 -0.0608,-5.58e-4 -0.293116,-0.127702 -0.516263,-0.282355 z"
       id="path1214" />
  </g>
</svg>
